<svg width="47" height="47" viewBox="0 0 47 47" fill="none" xmlns="http://www.w3.org/2000/svg">
<g clip-path="url(#clip0_262_35047)">
<path d="M14.6195 12.0322C16.0747 13.3735 17.8053 14.3597 19.6146 14.9909C18.6313 13.9257 18.0413 12.5056 18.0413 10.967C18.0413 7.65324 20.7158 4.97066 24.0197 4.97066C27.3235 4.97066 29.998 7.65324 29.998 10.967C29.998 12.5056 29.4081 13.9257 28.4248 14.9909C30.234 14.3597 31.9253 13.3735 33.4199 12.0322C35.3864 10.2569 36.8417 7.96884 37.707 5.40461C34.0885 2.05138 29.2901 0 23.9803 0C18.6706 0 13.9115 2.05138 10.3324 5.40461C11.1976 7.96884 12.6529 10.2569 14.6195 12.0322Z" fill="white" fill-opacity="0.5"/>
<path d="M29.9194 23.1568C34.0885 24.7743 37.589 28.088 39.7915 32.3881C42.4267 28.9954 44 24.7348 44 20.0797C44 16.1742 42.8987 12.5449 40.9715 9.46777C39.7915 15.7797 35.5044 20.9871 29.9194 23.1568Z" fill="white" fill-opacity="0.5"/>
<path d="M18.0806 23.1572C12.4562 20.9875 8.20846 15.7801 7.02852 9.42871C5.10128 12.5058 4 16.1352 4 20.0407C4 24.6957 5.57325 28.9563 8.20846 32.349C10.411 28.0884 13.9115 24.7747 18.0806 23.1572Z" fill="white" fill-opacity="0.5"/>
<path d="M23.9803 31.4414C20.3225 31.4414 16.7827 32.9405 13.9508 35.702C13.5969 36.057 13.2429 36.4121 12.9282 36.8066C16.0747 38.8974 19.8899 40.1203 23.941 40.1203C27.9921 40.1203 31.8073 38.8974 34.9538 36.8066C34.6391 36.4121 34.2852 36.057 33.9312 35.702C31.2173 32.9405 27.6382 31.4414 23.9803 31.4414Z" fill="white" fill-opacity="0.5"/>
<path d="M23.9803 30.0607C32.3579 30.0607 39.3196 37.0827 40.6568 46.2745C40.8142 45.2093 40.8928 44.0653 40.8928 42.9607C40.8928 32.1515 33.3019 23.4331 23.941 23.4331C14.5801 23.4331 6.98918 32.1909 6.98918 42.9607C6.98918 44.1048 7.06784 45.2093 7.22517 46.2745C8.68043 37.0827 15.6421 30.0607 23.9803 30.0607Z" fill="#FCBB45"/>
<path d="M28.4831 12.0418C29.0722 9.56202 27.5456 7.07274 25.0732 6.48185C22.6008 5.89096 20.119 7.42222 19.5299 9.90202C18.9408 12.3818 20.4675 14.8711 22.9398 15.462C25.4122 16.0529 27.894 14.5216 28.4831 12.0418Z" fill="#FCBB45"/>
<path d="M23.9803 17.0816C16.1141 17.0816 9.58506 11.0063 8.28712 2.99805C8.12979 3.94484 8.05113 4.89163 8.05113 5.87788C8.09046 15.2669 15.2094 22.8807 23.9803 22.8807C32.7512 22.8807 39.9095 15.2669 39.9095 5.87788C39.9095 4.89163 39.8309 3.94484 39.6735 2.99805C38.3756 11.0063 31.8466 17.0816 23.9803 17.0816Z" fill="#FCBB45"/>
</g>
<defs>
<clipPath id="clip0_262_35047">
<rect width="40" height="46.2745" fill="white" transform="translate(4)"/>
</clipPath>
</defs>
</svg>
