<svg width="195" height="51" viewBox="0 0 195 51" fill="none" xmlns="http://www.w3.org/2000/svg">
<path d="M56.8898 16.4074H61.6318V35.3503H56.8898V16.4074ZM63.5227 28.2249C63.5227 23.5329 66.4773 20.7206 70.9091 20.7206C75.3409 20.7206 78.2955 23.5329 78.2955 28.2249C78.2955 32.9169 75.4443 35.7583 70.9091 35.7583C66.3739 35.7583 63.5227 33.0189 63.5227 28.2249ZM73.5977 28.2249C73.5977 25.6457 72.5784 24.1303 70.9534 24.1303C69.3284 24.1303 68.3239 25.5874 68.3239 28.2249C68.3239 30.8623 69.3284 32.3049 70.9534 32.3049C72.5784 32.3049 73.6273 30.8623 73.6273 28.2394L73.5977 28.2249ZM80.1864 36.3266H84.7659C84.9744 36.8128 85.3385 37.2186 85.8027 37.4817C86.2668 37.7448 86.8054 37.8509 87.3364 37.7837C89.1534 37.7837 90.0989 36.822 90.0989 35.394V32.7712H90.1136C89.7223 33.5879 89.0894 34.2685 88.2985 34.7237C87.5074 35.1789 86.5952 35.3872 85.6818 35.3212C82.2102 35.3212 79.9057 32.7129 79.9057 28.2249C79.9057 23.7369 82.1068 20.9392 85.8148 20.9392C86.7515 20.8898 87.6809 21.128 88.4745 21.6212C89.2682 22.1145 89.8873 22.8384 90.2466 23.6932H90.1136V21.0557H94.8114V35.2483C94.8114 38.6726 91.7386 40.8146 87.2182 40.8146C83.1114 40.8 80.4818 38.9494 80.2159 36.3412L80.1864 36.3266ZM90.1136 28.2249C90.1136 25.9372 89.05 24.4946 87.3659 24.4946C85.6818 24.4946 84.6477 25.9517 84.6477 28.2249C84.6477 30.498 85.667 31.8386 87.3659 31.8386C89.0648 31.8386 90.1136 30.6 90.1136 28.2249ZM96.6875 28.2249C96.6875 23.5329 99.642 20.7206 104.074 20.7206C108.506 20.7206 111.46 23.5329 111.46 28.2249C111.46 32.9169 108.594 35.7583 104.074 35.7583C99.5534 35.7583 96.717 33.0189 96.717 28.2249H96.6875ZM106.762 28.2249C106.762 25.6457 105.728 24.1303 104.118 24.1303C102.508 24.1303 101.489 25.5874 101.489 28.2249C101.489 30.8623 102.493 32.3049 104.118 32.3049C105.743 32.3049 106.792 30.8623 106.792 28.2394L106.762 28.2249ZM113.381 17.6023C113.36 17.1258 113.484 16.6541 113.738 16.248C113.991 15.8418 114.362 15.5197 114.802 15.3232C115.243 15.1265 115.733 15.0644 116.21 15.1448C116.686 15.2251 117.127 15.4443 117.477 15.774C117.826 16.1039 118.067 16.5291 118.169 16.9952C118.271 17.4614 118.23 17.9471 118.05 18.3896C117.87 18.8323 117.56 19.2117 117.16 19.4791C116.759 19.7465 116.287 19.8896 115.803 19.89C115.495 19.8977 115.187 19.8448 114.899 19.7345C114.611 19.6241 114.348 19.4583 114.125 19.2468C113.902 19.0354 113.725 18.7824 113.602 18.5025C113.479 18.2227 113.414 17.9217 113.41 17.6169L113.381 17.6023ZM113.381 21.0412H118.182V35.4086H113.455L113.381 21.0412ZM135.451 28.2249C135.451 32.9023 133.324 35.6126 129.705 35.6126C128.778 35.669 127.856 35.4434 127.064 34.9666C126.271 34.4897 125.646 33.7845 125.273 32.946H125.184V40.0277H120.442V21.0849H125.155V23.6494H125.243C125.604 22.7945 126.223 22.0699 127.016 21.5745C127.809 21.079 128.737 20.8369 129.675 20.8809C133.398 20.8517 135.54 23.5474 135.54 28.2394L135.451 28.2249ZM130.62 28.2249C130.62 25.9517 129.542 24.48 127.873 24.48C126.203 24.48 125.155 25.9372 125.14 28.2249C125.125 30.5126 126.203 31.9552 127.873 31.9552C129.542 31.9552 130.709 30.6 130.709 28.2394L130.62 28.2249ZM143.547 20.706C147.52 20.706 149.987 22.5566 150.017 25.5292H145.689C145.689 24.4946 144.817 23.8534 143.517 23.8534C142.217 23.8534 141.597 24.3489 141.597 25.092C141.597 25.8352 142.143 26.0683 143.236 26.2869L146.28 26.8989C149.234 27.5109 150.416 28.6766 150.416 30.8477C150.416 33.762 147.683 35.7437 143.62 35.7437C139.558 35.7437 136.914 33.8203 136.722 30.8914H141.316C141.449 31.9552 142.306 32.5817 143.694 32.5817C145.083 32.5817 145.733 32.1446 145.733 31.3723C145.733 30.6 145.29 30.4689 144.152 30.2357L141.405 29.6674C138.553 29.07 137.061 27.5983 137.061 25.398C137.15 22.542 139.632 20.7206 143.635 20.7206L143.547 20.706ZM166.297 35.394H161.702V32.6983H161.614C161.357 33.5975 160.797 34.3833 160.026 34.9263C159.254 35.4693 158.319 35.737 157.374 35.6854C156.66 35.7083 155.948 35.5821 155.288 35.3149C154.628 35.0478 154.031 34.6458 153.539 34.1353C153.045 33.6247 152.669 33.0173 152.431 32.3528C152.193 31.6883 152.1 30.9816 152.159 30.2794V21.0557H156.901V29.274C156.901 30.9643 157.802 31.8823 159.28 31.8823C159.627 31.8797 159.968 31.8038 160.283 31.6598C160.597 31.5157 160.876 31.3067 161.101 31.0471C161.327 30.7874 161.494 30.483 161.59 30.1546C161.685 29.826 161.708 29.4811 161.658 29.1429V21.0557H166.385L166.297 35.394ZM168.586 21.0412H173.195V23.8097H173.299C173.553 22.9228 174.1 22.1442 174.85 21.5957C175.602 21.0474 176.516 20.7601 177.45 20.7789C178.388 20.6984 179.323 20.966 180.071 21.5291C180.82 22.0923 181.328 22.9108 181.498 23.8243H181.705C182 22.9059 182.594 22.1094 183.396 21.5587C184.197 21.0079 185.161 20.7338 186.136 20.7789C186.785 20.7545 187.432 20.8656 188.033 21.1047C188.636 21.3437 189.18 21.7055 189.63 22.1664C190.081 22.6271 190.426 23.1766 190.646 23.7787C190.868 24.3808 190.957 25.0219 190.908 25.6603V35.4086H186.136V26.8552C186.136 25.398 185.442 24.582 184.098 24.582C183.799 24.5772 183.504 24.6361 183.231 24.7544C182.957 24.8729 182.715 25.0482 182.517 25.2682C182.319 25.4884 182.171 25.7479 182.084 26.0294C181.999 26.3109 181.975 26.6074 182.015 26.8989V35.4086H177.494V26.8114C177.494 25.3543 176.77 24.582 175.47 24.582C175.169 24.5797 174.871 24.6409 174.596 24.7615C174.32 24.8823 174.074 25.0597 173.874 25.2819C173.674 25.5041 173.525 25.7659 173.436 26.0498C173.346 26.3338 173.32 26.6332 173.358 26.928V35.4086H168.616L168.586 21.0412Z" fill="white"/>
<path d="M47.5091 17.646C47.5093 14.7459 46.6214 11.9133 44.9619 9.5193C43.3023 7.1253 40.9482 5.28151 38.2084 4.22945C35.4685 3.17738 32.4702 2.96609 29.6065 3.62325C26.7426 4.2804 24.1469 5.77537 22.1591 7.91233H3.72278V46.2935H42.6489V28.356C44.1767 27.0082 45.3993 25.3577 46.2367 23.5122C47.0742 21.6667 47.5078 19.668 47.5091 17.646ZM40.0193 17.646C40.0223 19.0357 39.6072 20.3951 38.8266 21.5521C38.0459 22.7089 36.9349 23.6114 35.6341 24.1452C34.3332 24.6791 32.9011 24.8203 31.5188 24.5509C30.1367 24.2816 28.8665 23.6138 27.8692 22.6321C26.8719 21.6504 26.1924 20.399 25.9164 19.0362C25.6405 17.6734 25.7806 16.2604 26.3191 14.9763C26.8576 13.692 27.7702 12.5943 28.9414 11.8219C30.1128 11.0495 31.49 10.6372 32.8989 10.6372C34.7848 10.6372 36.5937 11.3752 37.9286 12.6892C39.2636 14.0031 40.0155 15.7859 40.0193 17.646ZM35.1591 38.9058H11.2126V15.3H18.5102C18.3693 16.0745 18.2952 16.8593 18.2887 17.646C18.2926 21.467 19.8331 25.1302 22.5723 27.8321C25.3113 30.5337 29.0252 32.0534 32.8989 32.0572C33.6563 32.0533 34.4121 31.9899 35.1591 31.8678V38.9058Z" fill="white"/>
</svg>
