<svg width="196" height="60" viewBox="0 0 196 60" fill="none" xmlns="http://www.w3.org/2000/svg">
<path d="M34.493 17.0849H37.4627V37.9649H46.3718V40.9649H34.493V17.0849ZM55.6224 17.0849C57.3845 17.0849 59.1069 17.6127 60.572 18.6017C62.0371 19.5906 63.1791 20.9961 63.8534 22.6407C64.5277 24.2853 64.7041 26.0949 64.3603 27.8406C64.0166 29.5865 63.1681 31.1901 61.9221 32.4488C60.6761 33.7076 59.0887 34.5647 57.3605 34.9119C55.6324 35.2592 53.8411 35.081 52.2131 34.3998C50.5851 33.7185 49.1938 32.565 48.2148 31.085C47.2359 29.6049 46.7133 27.8649 46.7133 26.0849C46.7133 24.903 46.9438 23.7326 47.3915 22.6407C47.8392 21.5487 48.4955 20.5566 49.3228 19.721C50.15 18.8852 51.1321 18.2222 52.2131 17.7699C53.2939 17.3177 54.4525 17.0849 55.6224 17.0849ZM55.6224 32.0849C56.7971 32.0849 57.9455 31.733 58.9222 31.0737C59.899 30.4143 60.6602 29.4773 61.1097 28.3809C61.5593 27.2846 61.6769 26.0783 61.4476 24.9143C61.2185 23.7504 60.6528 22.6814 59.8222 21.8423C58.9916 21.0032 57.9333 20.4317 56.7812 20.2002C55.629 19.9686 54.4349 20.0874 53.3496 20.5416C52.2643 20.9957 51.3366 21.7647 50.684 22.7514C50.0314 23.7381 49.683 24.8982 49.683 26.0849C49.6909 27.671 50.32 29.1894 51.4331 30.3081C52.5461 31.4268 54.0524 32.0549 55.6224 32.0549V32.0849ZM49.683 37.9949H61.5618V40.9949H49.683V37.9949ZM87.6952 40.9949H84.7255V38.8499C82.8103 40.2041 80.5299 40.9319 78.1921 40.9349C76.1987 40.9484 74.234 40.4549 72.479 39.4998C70.7239 38.5446 69.2351 37.1588 68.1497 35.4698C67.0641 33.7808 66.4167 31.8429 66.2673 29.8347C66.1178 27.8267 66.471 25.8128 67.2944 23.9789C68.1177 22.1448 69.3848 20.5496 70.9786 19.3403C72.5726 18.1308 74.4422 17.346 76.4151 17.0583C78.3881 16.7705 80.4011 16.989 82.2685 17.6936C84.136 18.3981 85.798 19.566 87.1012 21.0899L84.9185 23.0549C83.9272 21.9353 82.6744 21.0842 81.2741 20.5791C79.8739 20.0739 78.3708 19.9308 76.9018 20.1629C75.4327 20.3949 74.0447 20.9948 72.8638 21.9075C71.683 22.8204 70.7471 24.0171 70.1416 25.389C69.5359 26.7608 69.2798 28.2638 69.3965 29.7612C69.5132 31.2587 69.9989 32.7027 70.8096 33.9618C71.6203 35.2209 72.73 36.2552 74.0377 36.9701C75.3452 37.685 76.8093 38.0579 78.2961 38.0549C79.53 38.0574 80.7499 37.7907 81.8725 37.2729C82.9949 36.7551 83.9934 35.9985 84.7997 35.0549H76.7815V32.0549H87.7249L87.6952 40.9949ZM98.6236 17.1449C100.386 17.1449 102.108 17.6727 103.573 18.6617C105.038 19.6506 106.18 21.0561 106.855 22.7007C107.529 24.3453 107.705 26.1549 107.362 27.9006C107.018 29.6465 106.169 31.2501 104.923 32.5088C103.677 33.7676 102.09 34.6247 100.362 34.9719C98.6336 35.3192 96.8423 35.141 95.2143 34.4598C93.5863 33.7785 92.195 32.625 91.216 31.145C90.2371 29.6649 89.7146 27.9249 89.7146 26.1449C89.7067 24.9554 89.9324 23.7762 90.3784 22.6754C90.8245 21.5745 91.4821 20.5739 92.3133 19.7315C93.1446 18.8889 94.1329 18.2213 95.2211 17.7669C96.3094 17.3127 97.4759 17.0808 98.6534 17.0849L98.6236 17.1449ZM98.6236 32.1449C99.7983 32.1449 100.947 31.793 101.923 31.1337C102.9 30.4743 103.661 29.5373 104.111 28.4409C104.561 27.3446 104.678 26.1383 104.449 24.9743C104.22 23.8104 103.654 22.7414 102.823 21.9023C101.993 21.0632 100.935 20.4917 99.7824 20.2602C98.6302 20.0286 97.4361 20.1474 96.3508 20.6016C95.2655 21.0557 94.3378 21.8247 93.6852 22.8114C93.0326 23.7981 92.6843 24.9582 92.6843 26.1449C92.7077 27.7257 93.3478 29.2334 94.4656 30.3401C95.5833 31.4466 97.0883 32.063 98.6534 32.0549L98.6236 32.1449ZM92.6843 38.0549H104.563V41.0549H92.6843V38.0549ZM110.695 17.0849H113.665V40.9349H110.695V17.0849ZM117.778 17.0849H120.748C120.901 17.0685 121.055 17.0685 121.208 17.0849C122.452 16.9485 123.71 17.0784 124.901 17.4659C126.092 17.8535 127.188 18.4899 128.119 19.334C129.05 20.178 129.795 21.2108 130.305 22.3649C130.815 23.519 131.078 24.7686 131.078 26.0324C131.078 27.2961 130.815 28.5458 130.305 29.6999C129.795 30.854 129.05 31.8867 128.119 32.7308C127.188 33.5748 126.092 34.2113 124.901 34.5989C123.71 34.9863 122.452 35.1162 121.208 34.9799H120.748V40.9799H117.778V17.0849ZM120.748 20.0849V31.9499H121.208C122.047 32.0627 122.9 31.9932 123.71 31.7459C124.52 31.4987 125.268 31.0794 125.905 30.5163C126.542 29.9532 127.052 29.2592 127.401 28.4807C127.751 27.7022 127.932 26.8572 127.932 26.0024C127.932 25.1475 127.751 24.3026 127.401 23.5241C127.052 22.7456 126.542 22.0515 125.905 21.4884C125.268 20.9252 124.52 20.5061 123.71 20.2587C122.9 20.0115 122.047 19.9421 121.208 20.0549C121.046 20.0718 120.887 20.1071 120.733 20.1599L120.748 20.0849ZM142.145 18.8099L139.947 20.5649C139.568 20.1647 139.084 19.8821 138.551 19.7504C138.018 19.6187 137.46 19.6433 136.94 19.8213C136.421 19.9992 135.963 20.3232 135.62 20.7552C135.276 21.1872 135.062 21.7092 135.002 22.2599V22.4999C135.002 23.8199 135.908 24.7049 137.675 24.8249C144.476 25.2449 147.594 28.4699 147.594 32.7299V32.9999C147.418 34.6859 146.767 36.2855 145.718 37.6085C144.668 38.9315 143.264 39.9219 141.674 40.4624C140.083 41.0027 138.372 41.0702 136.745 40.6566C135.117 40.2432 133.641 39.3662 132.493 38.1299L134.765 36.3599C135.294 36.9324 135.939 37.3818 136.657 37.6772C137.375 37.9724 138.148 38.1065 138.922 38.0699C140.353 38.1461 141.757 37.6611 142.841 36.7163C143.926 35.7716 144.607 34.44 144.743 32.9999V32.7899C144.743 28.7849 140.853 28.0499 137.482 27.7199C134.364 27.4199 132.122 25.4549 132.122 22.6199V22.4999C132.232 21.0239 132.899 19.6469 133.984 18.6533C135.07 17.6595 136.492 17.1249 137.957 17.1599C138.734 17.1368 139.506 17.2782 140.225 17.5754C140.943 17.8725 141.592 18.3186 142.13 18.8849L142.145 18.8099ZM159.22 37.8899C162.918 37.8899 165.843 33.8549 165.843 28.8899V16.8899H168.812V28.8899C168.812 35.4899 164.536 40.8149 159.28 40.8149C154.023 40.8149 149.747 35.4899 149.747 28.8899V16.8899H152.717V28.8899C152.598 33.9299 155.523 37.9649 159.205 37.9649L159.22 37.8899ZM191.605 40.8899H188.635V26.0399L181.79 35.0399L174.945 26.0399V40.9349H171.975V17.0849L181.775 30.1199L191.575 17.0849L191.605 40.8899Z" fill="white"/>
<path d="M20.2385 13.5001C20.2385 11.3359 19.3876 9.26038 17.8727 7.7301C16.3579 6.1998 14.3033 5.34009 12.1609 5.34009C10.0186 5.34009 7.96408 6.1998 6.44924 7.7301C4.9344 9.26038 4.08337 11.3359 4.08337 13.5001V38.1751L10.7355 42.9901V54.7201H13.5864V42.9901L20.2385 38.1751V13.5001ZM17.3876 27.3001L13.5864 31.1401V27.5401L17.3876 23.7001V27.3001ZM6.99368 23.7001L10.7949 27.5401V31.1401L6.99368 27.3001V23.7001ZM17.3876 19.6201L12.1609 24.9001L6.93428 19.5001V15.9001L12.1609 21.1801L17.3876 15.9001V19.6201ZM12.1609 8.22009C13.3104 8.22522 14.4266 8.61088 15.3384 9.31798C16.2502 10.0251 16.9074 11.0146 17.2094 12.1351L12.1609 17.2201L7.11246 12.1351C7.40341 11.0035 8.05589 10.0005 8.96872 9.2818C9.88154 8.56308 11.0036 8.16877 12.1609 8.16007V8.22009ZM6.93428 36.7201V31.3201L10.7355 35.1601V39.4501L6.93428 36.7201ZM13.5864 39.4651V35.1601L17.3876 31.3201V36.7051L13.5864 39.4651Z" fill="white"/>
</svg>
