<svg width="195" height="52" viewBox="0 0 195 52" fill="none" xmlns="http://www.w3.org/2000/svg">
<path d="M66.2262 37.447C65.3475 37.495 64.4784 37.2438 63.7591 36.7339C63.4586 36.5099 63.2168 36.2155 63.0546 35.8765C62.8924 35.5373 62.8148 35.1636 62.8284 34.7876V21.015C62.8213 20.9568 62.8274 20.8975 62.8465 20.842C62.8654 20.7864 62.8967 20.736 62.938 20.6944C62.9794 20.6528 63.0295 20.6213 63.0847 20.6023C63.14 20.5831 63.1989 20.5771 63.2568 20.5842H65.7387C66.0193 20.5842 66.1523 20.7328 66.1523 21.015V33.7179C66.1523 34.2825 66.4034 34.5648 66.9205 34.5648C67.1397 34.5738 67.3589 34.5489 67.5705 34.4905C67.8659 34.4905 68.0284 34.5796 68.0432 34.847L68.2648 36.7042C68.2754 36.7584 68.2744 36.8141 68.2618 36.8679C68.2493 36.9215 68.2254 36.9721 68.1917 37.0156C68.1581 37.0593 68.1156 37.0952 68.0671 37.1209C68.0185 37.1466 67.9651 37.1616 67.9103 37.1648C67.3666 37.3454 66.7986 37.4407 66.2262 37.447Z" fill="white"/>
<path d="M80.1863 35.8573C78.9393 36.8936 77.3721 37.4604 75.7545 37.4604C74.1369 37.4604 72.5698 36.8936 71.3227 35.8573C70.2267 34.7445 69.6117 33.2414 69.6117 31.675C69.6117 30.1087 70.2267 28.6056 71.3227 27.4928C72.5721 26.4618 74.1384 25.8984 75.7545 25.8984C77.3706 25.8984 78.9368 26.4618 80.1863 27.4928C81.2572 28.6158 81.855 30.1116 81.855 31.6676C81.855 33.2236 81.2572 34.7194 80.1863 35.8425V35.8573ZM73.6568 33.8962C74.2356 34.4235 74.9884 34.7154 75.7693 34.7154C76.5502 34.7154 77.3031 34.4235 77.8818 33.8962C78.4056 33.2906 78.694 32.5149 78.694 31.7122C78.694 30.9096 78.4056 30.1339 77.8818 29.5282C77.3031 29.0011 76.5502 28.709 75.7693 28.709C74.9884 28.709 74.2356 29.0011 73.6568 29.5282C73.1331 30.1339 72.8446 30.9096 72.8446 31.7122C72.8446 32.5149 73.1331 33.2906 73.6568 33.8962Z" fill="white"/>
<path d="M95.5205 26.2744C95.8012 26.2744 95.9341 26.4229 95.9341 26.7052V37.3578C95.96 38.0769 95.8261 38.7925 95.5425 39.4529C95.2589 40.1135 94.8325 40.7021 94.2944 41.1761C93.0998 42.2005 91.5638 42.7313 89.9955 42.6618C88.5791 42.7119 87.1814 42.3229 85.9921 41.5475C85.4842 41.2122 85.0503 40.7752 84.7175 40.2641C84.3845 39.7529 84.1597 39.1784 84.0569 38.5761C84.0569 38.2789 84.0568 38.1452 84.4557 38.1452H86.9375C87.0429 38.1488 87.1451 38.1831 87.2315 38.2437C87.3181 38.3043 87.3853 38.3887 87.425 38.4869C87.5861 38.9381 87.9069 39.3139 88.3262 39.5418C88.8372 39.807 89.4059 39.9398 89.9807 39.9281C90.3276 39.9472 90.6747 39.8966 91.0019 39.7792C91.3292 39.662 91.6298 39.4801 91.8864 39.2446C92.1208 38.9983 92.3031 38.7067 92.4225 38.3875C92.5419 38.0684 92.5956 37.7282 92.5807 37.3875V36.4515C91.6921 37.1088 90.6106 37.4487 89.508 37.4172C88.7363 37.4454 87.9669 37.3166 87.2458 37.0384C86.5249 36.7599 85.8674 36.3381 85.3125 35.7978C84.2476 34.6897 83.6522 33.2088 83.6522 31.6675C83.6522 30.1264 84.2476 28.6454 85.3125 27.5372C85.8701 27.0018 86.5285 26.584 87.2489 26.3084C87.9696 26.0328 88.7376 25.905 89.508 25.9326C90.6425 25.9025 91.7531 26.2644 92.6546 26.9578V26.7201C92.6478 26.6632 92.6537 26.6054 92.6719 26.551C92.69 26.4968 92.72 26.4471 92.7596 26.4058C92.7992 26.3645 92.8475 26.3327 92.9008 26.3125C92.9543 26.2923 93.0115 26.2845 93.0682 26.2892L95.5205 26.2744ZM89.7887 34.7726C90.1692 34.7845 90.5478 34.7122 90.8975 34.5606C91.2472 34.4092 91.5596 34.1824 91.8125 33.8961C92.3037 33.2583 92.5702 32.4742 92.5702 31.6675C92.5702 30.8608 92.3037 30.0769 91.8125 29.4389C91.5605 29.1566 91.25 28.933 90.903 28.7842C90.5558 28.6353 90.1806 28.5647 89.8034 28.5772C89.4185 28.565 89.0356 28.6371 88.681 28.7885C88.3265 28.9399 88.0089 29.1669 87.75 29.4538C87.206 30.064 86.9198 30.8634 86.9523 31.6824C86.9257 32.4933 87.2055 33.2843 87.7353 33.8961C87.9947 34.1822 88.3124 34.4088 88.6668 34.56C89.0212 34.7113 89.4038 34.7838 89.7887 34.7726Z" fill="white"/>
<path d="M108.683 35.8572C107.434 36.8881 105.867 37.4515 104.251 37.4515C102.635 37.4515 101.069 36.8881 99.8194 35.8572C98.7476 34.7316 98.1493 33.2334 98.1493 31.6749C98.1493 30.1165 98.7476 28.6182 99.8194 27.4926C101.07 26.4643 102.636 25.9026 104.251 25.9026C105.867 25.9026 107.432 26.4643 108.683 27.4926C109.754 28.6157 110.352 30.1115 110.352 31.6675C110.352 33.2234 109.754 34.7193 108.683 35.8423V35.8572ZM102.139 33.896C102.422 34.167 102.756 34.3787 103.121 34.519C103.486 34.6592 103.875 34.7254 104.266 34.7132C104.654 34.7233 105.041 34.6564 105.403 34.5162C105.766 34.3759 106.097 34.1652 106.378 33.896C106.894 33.2863 107.177 32.5122 107.177 31.712C107.177 30.9118 106.894 30.1378 106.378 29.528C106.097 29.259 105.766 29.0481 105.403 28.908C105.041 28.7678 104.654 28.7008 104.266 28.7109C103.875 28.6989 103.486 28.7648 103.121 28.9051C102.756 29.0453 102.422 29.2572 102.139 29.528C101.624 30.1378 101.341 30.9118 101.341 31.712C101.341 32.5122 101.624 33.2863 102.139 33.896Z" fill="white"/>
<path d="M115.685 23.7488C115.295 24.0926 114.793 24.282 114.274 24.282C113.755 24.282 113.254 24.0926 112.864 23.7488C112.687 23.5808 112.546 23.3781 112.449 23.1533C112.353 22.9285 112.303 22.6862 112.303 22.4414C112.303 22.1965 112.353 21.9544 112.449 21.7294C112.546 21.5046 112.687 21.302 112.864 21.134C113.258 20.7988 113.758 20.615 114.274 20.615C114.791 20.615 115.291 20.7988 115.685 21.134C115.862 21.302 116.003 21.5046 116.1 21.7294C116.196 21.9544 116.246 22.1965 116.246 22.4414C116.246 22.6862 116.196 22.9285 116.1 23.1533C116.003 23.3781 115.862 23.5808 115.685 23.7488ZM115.995 37.4471C115.117 37.4905 114.25 37.2397 113.528 36.734C113.232 36.5066 112.995 36.2113 112.836 35.8727C112.676 35.5341 112.6 35.1621 112.612 34.7877V26.7054C112.605 26.6471 112.611 26.5879 112.63 26.5323C112.649 26.4767 112.681 26.4264 112.722 26.3848C112.763 26.3432 112.814 26.3117 112.869 26.2926C112.924 26.2735 112.983 26.2674 113.041 26.2745H115.523C115.803 26.2745 115.936 26.4231 115.936 26.7054V33.718C115.936 34.2825 116.187 34.5648 116.69 34.5648C116.914 34.573 117.138 34.5479 117.355 34.4905C117.65 34.4905 117.812 34.5797 117.827 34.8471L118.049 36.7042C118.059 36.7585 118.058 36.8142 118.046 36.868C118.033 36.9216 118.009 36.9721 117.976 37.0156C117.942 37.0593 117.9 37.0953 117.851 37.121C117.803 37.1467 117.749 37.1617 117.694 37.1648C117.146 37.3465 116.573 37.4417 115.995 37.4471Z" fill="white"/>
<path d="M127.178 25.9179C127.954 25.8872 128.727 26.0133 129.453 26.2889C130.179 26.5647 130.842 26.9841 131.403 27.5225C132.448 28.6502 133.029 30.1339 133.029 31.6751C133.029 33.2162 132.448 34.7001 131.403 35.8277C130.845 36.371 130.182 36.7946 129.456 37.0728C128.73 37.3513 127.955 37.4786 127.178 37.4471C126.072 37.4719 124.988 37.1329 124.091 36.4814V41.8448C124.091 42.1271 123.943 42.2608 123.663 42.2608H121.181C121.124 42.2715 121.066 42.2681 121.011 42.251C120.956 42.2338 120.906 42.2034 120.865 42.1624C120.824 42.1214 120.794 42.0712 120.777 42.0158C120.76 41.9605 120.757 41.9018 120.767 41.8448V29.6619C120.785 29.5428 120.774 29.4213 120.736 29.3069C120.699 29.1926 120.635 29.0886 120.55 29.0035C120.466 28.9183 120.362 28.8543 120.249 28.8164C120.135 28.7785 120.014 28.768 119.896 28.7854H119.408C119.083 28.7854 118.921 28.6665 118.921 28.4288V26.6757C118.913 26.5672 118.942 26.4593 119.004 26.3702C119.066 26.2809 119.156 26.2157 119.26 26.1854C119.771 25.9986 120.312 25.908 120.856 25.9179C121.398 25.8697 121.942 25.9854 122.418 26.25C122.895 26.5147 123.282 26.9165 123.53 27.4037C124.005 26.9196 124.574 26.5382 125.202 26.2827C125.829 26.0273 126.502 25.9031 127.178 25.9179ZM124.874 33.8962C125.137 34.1732 125.454 34.3935 125.804 34.544C126.155 34.6945 126.532 34.772 126.913 34.772C127.294 34.772 127.671 34.6945 128.021 34.544C128.371 34.3935 128.688 34.1732 128.951 33.8962C129.506 33.2739 129.798 32.4583 129.764 31.6231C129.802 30.7872 129.51 29.9698 128.951 29.3499C128.688 29.0731 128.371 28.8528 128.021 28.7023C127.671 28.5517 127.294 28.4741 126.913 28.4741C126.532 28.4741 126.155 28.5517 125.804 28.7023C125.454 28.8528 125.137 29.0731 124.874 29.3499C124.336 29.9808 124.057 30.793 124.091 31.6231C124.061 32.4526 124.34 33.2633 124.874 33.8962Z" fill="white"/>
<path d="M140.001 37.4471C138.675 37.5019 137.36 37.1829 136.205 36.5259C135.741 36.2451 135.346 35.8629 135.05 35.4076C134.753 34.9524 134.562 34.4358 134.491 33.8962C134.491 33.5991 134.594 33.4505 134.919 33.4505H137.091C137.194 33.4547 137.295 33.4872 137.381 33.545C137.466 33.6027 137.535 33.683 137.578 33.7774C137.889 34.5797 138.701 34.9808 140.001 34.9808C140.455 35.0017 140.906 34.9098 141.316 34.7134C141.457 34.6492 141.579 34.5476 141.667 34.4193C141.756 34.2911 141.808 34.1411 141.818 33.9854C141.818 33.5991 141.582 33.3317 141.109 33.1534C140.549 32.9657 139.969 32.8411 139.381 32.7819C138.684 32.7026 137.993 32.5785 137.313 32.4105C136.65 32.2599 136.048 31.9131 135.584 31.4151C135.311 31.0766 135.109 30.6852 134.993 30.2651C134.876 29.8451 134.847 29.4054 134.906 28.9735C134.966 28.5414 135.113 28.1263 135.339 27.7541C135.565 27.3818 135.865 27.0603 136.219 26.8094C137.284 26.1273 138.534 25.7949 139.794 25.8585C141.015 25.8171 142.223 26.1207 143.281 26.7351C143.707 26.978 144.074 27.3133 144.355 27.7168C144.636 28.1204 144.824 28.5818 144.906 29.0677C144.906 29.3648 144.773 29.5134 144.507 29.5134H142.321C142.228 29.5189 142.137 29.4963 142.058 29.4486C141.979 29.4009 141.916 29.3302 141.877 29.2459C141.731 28.8941 141.456 28.6121 141.109 28.4585C140.718 28.2526 140.28 28.1502 139.839 28.1614C139.406 28.1377 138.974 28.2247 138.583 28.4139C138.445 28.4674 138.327 28.561 138.242 28.6829C138.158 28.8047 138.112 28.9491 138.11 29.0974C138.12 29.3006 138.194 29.4954 138.321 29.6532C138.449 29.811 138.623 29.9233 138.819 29.9739C139.387 30.1891 139.977 30.3385 140.577 30.4197C141.268 30.5112 141.954 30.6401 142.631 30.8059C143.293 30.9567 143.895 31.3034 144.359 31.8014C144.608 32.0758 144.799 32.3968 144.924 32.7463C145.048 33.0956 145.102 33.4663 145.083 33.8368C145.096 34.3504 144.976 34.8585 144.735 35.3117C144.494 35.7647 144.141 36.1472 143.709 36.4219C142.605 37.1346 141.312 37.4921 140.001 37.4471Z" fill="white"/>
<path d="M160.698 36.7041C160.707 36.7569 160.704 36.8108 160.692 36.8627C160.678 36.9147 160.656 36.9634 160.624 37.0063C160.593 37.0493 160.553 37.0854 160.507 37.1126C160.461 37.1397 160.411 37.1574 160.358 37.1647C159.819 37.3418 159.256 37.437 158.689 37.447C158.127 37.5055 157.56 37.4173 157.043 37.1908C156.524 36.9644 156.074 36.6074 155.734 36.1544C154.691 37.0567 153.341 37.5196 151.967 37.447C151.329 37.4766 150.692 37.3715 150.097 37.1387C149.501 36.9059 148.961 36.5504 148.51 36.095C148.063 35.6179 147.716 35.0548 147.49 34.4396C147.264 33.8244 147.164 33.1696 147.195 32.5144V26.7053C147.195 26.423 147.328 26.2744 147.609 26.2744H150.091C150.372 26.2744 150.504 26.423 150.504 26.7053V32.0687C150.478 32.737 150.704 33.3904 151.14 33.8961C151.357 34.1279 151.621 34.31 151.914 34.4305C152.206 34.551 152.522 34.6069 152.839 34.5944C153.162 34.6087 153.486 34.5583 153.79 34.446C154.094 34.3338 154.373 34.1621 154.611 33.9407C154.836 33.7074 155.012 33.4302 155.125 33.1261C155.241 32.822 155.291 32.4975 155.276 32.1727V26.7053C155.276 26.423 155.409 26.2744 155.69 26.2744H158.201C158.482 26.2744 158.615 26.423 158.615 26.7053V33.703C158.615 34.2824 158.866 34.5647 159.353 34.5647C159.582 34.5736 159.811 34.5487 160.033 34.4904C160.089 34.4747 160.148 34.4718 160.204 34.4822C160.262 34.4925 160.315 34.5157 160.362 34.55C160.41 34.5843 160.448 34.6289 160.476 34.6803C160.503 34.7317 160.517 34.7887 160.52 34.847L160.698 36.7041Z" fill="white"/>
<path d="M184.172 36.7041C184.185 36.7573 184.186 36.8129 184.176 36.8667C184.164 36.9203 184.142 36.9711 184.11 37.0151C184.077 37.0591 184.036 37.0953 183.987 37.1212C183.94 37.1472 183.887 37.162 183.832 37.1647C183.282 37.3443 182.711 37.4396 182.133 37.447C181.254 37.4926 180.387 37.2417 179.666 36.7338C179.354 36.5163 179.102 36.225 178.929 35.8855C178.756 35.546 178.669 35.1688 178.676 34.7876V31.2961C178.707 30.6299 178.486 29.9767 178.056 29.4687C177.849 29.2365 177.592 29.0534 177.307 28.9327C177.02 28.812 176.711 28.7566 176.401 28.7704C176.122 28.7599 175.844 28.8132 175.587 28.9264C175.332 29.0396 175.106 29.2099 174.924 29.4241C174.534 29.922 174.334 30.5442 174.363 31.1773V36.6596C174.363 36.9418 174.23 37.0904 173.949 37.0904H171.452C171.395 37.0977 171.336 37.0915 171.281 37.0724C171.225 37.0533 171.175 37.0218 171.133 36.9802C171.092 36.9387 171.061 36.8882 171.042 36.8326C171.022 36.7771 171.016 36.718 171.024 36.6596V31.2961C171.056 30.6372 170.851 29.9886 170.448 29.4687C170.268 29.2503 170.041 29.0745 169.786 28.9539C169.532 28.8333 169.253 28.7706 168.97 28.7704C168.669 28.7582 168.369 28.8101 168.089 28.9229C167.808 29.0355 167.555 29.2063 167.345 29.4241C166.923 29.9061 166.706 30.5357 166.74 31.1773V36.6596C166.747 36.718 166.741 36.7771 166.722 36.8326C166.703 36.8882 166.672 36.9387 166.63 36.9802C166.589 37.0218 166.539 37.0533 166.484 37.0724C166.428 37.0915 166.369 37.0977 166.311 37.0904H163.903C163.623 37.0904 163.49 36.9418 163.49 36.6596V29.6618C163.508 29.5427 163.497 29.4212 163.459 29.3068C163.422 29.1925 163.358 29.0885 163.273 29.0034C163.188 28.9182 163.085 28.8542 162.971 28.8163C162.858 28.7784 162.736 28.7679 162.618 28.7853H162.131C161.806 28.7853 161.643 28.6664 161.643 28.4287V26.6756C161.636 26.5671 161.665 26.4592 161.727 26.3701C161.789 26.2808 161.88 26.2156 161.983 26.1853C162.494 25.9985 163.035 25.9079 163.578 25.9178C164.1 25.8731 164.624 25.9777 165.09 26.2196C165.555 26.4615 165.942 26.8307 166.208 27.2847C166.706 26.8097 167.297 26.443 167.942 26.2079C168.588 25.9727 169.275 25.874 169.96 25.9178C170.627 25.8852 171.29 26.0107 171.898 26.2844C172.507 26.558 173.042 26.972 173.461 27.4927C173.95 26.9583 174.552 26.5399 175.221 26.2674C175.89 25.9951 176.611 25.8758 177.332 25.9178C177.976 25.8875 178.62 25.992 179.223 26.2248C179.825 26.4575 180.374 26.8133 180.833 27.2698C181.282 27.746 181.629 28.309 181.855 28.9245C182.081 29.5399 182.182 30.1952 182.148 30.8504V33.7178C182.148 34.2824 182.399 34.5647 182.872 34.5647C183.101 34.5754 183.33 34.5504 183.551 34.4904C183.857 34.4904 184.019 34.6093 184.039 34.847L184.172 36.7041Z" fill="white"/>
<path d="M10.9466 24.343C12.0365 19.9374 14.5607 16.0251 18.1172 13.2292C21.6737 10.4332 26.0581 8.91431 30.5722 8.91431C35.0863 8.91431 39.4707 10.4332 43.0272 13.2292C46.5838 16.0251 49.1078 19.9374 50.1978 24.343H48.425C45.4346 24.2987 42.5055 25.1976 40.0489 26.9133C39.9071 27.0165 39.7591 27.1109 39.6057 27.1956H39.3989C39.2456 27.1109 39.0975 27.0165 38.9557 26.9133C36.4774 25.2373 33.5586 24.3421 30.5722 24.3421C27.5857 24.3421 24.6669 25.2373 22.1887 26.9133C22.0469 27.0165 21.8988 27.1109 21.7455 27.1956H21.5387C21.3853 27.1109 21.2373 27.0165 21.0955 26.9133C18.6389 25.1976 15.7098 24.2987 12.7194 24.343H10.9466ZM45.2341 33.6584C46.1441 32.9457 47.272 32.5728 48.425 32.6036H50.8034V27.8344H48.425C46.3941 27.8098 44.4097 28.4455 42.7671 29.647C41.8427 30.3324 40.7246 30.7022 39.5762 30.7022C38.4277 30.7022 37.3096 30.3324 36.3853 29.647C34.701 28.4679 32.6981 27.8358 30.6461 27.8358C28.594 27.8358 26.5911 28.4679 24.9069 29.647C23.9825 30.3324 22.8644 30.7022 21.7159 30.7022C20.5675 30.7022 19.4494 30.3324 18.525 29.647C16.8622 28.4301 14.8493 27.7936 12.7932 27.8344H10.3409V32.6036H12.7194C13.8724 32.5728 15.0003 32.9457 15.9103 33.6584C17.5914 34.8384 19.5921 35.471 21.6421 35.471C23.6921 35.471 25.6928 34.8384 27.3739 33.6584C28.2851 32.948 29.4121 32.5753 30.5648 32.6036C31.7183 32.5703 32.8469 32.9435 33.7557 33.6584C35.44 34.8376 37.4428 35.4697 39.4949 35.4697C41.547 35.4697 43.5499 34.8376 45.2341 33.6584ZM45.2341 42.1864C46.1441 41.4737 47.272 41.1008 48.425 41.1316H50.8034V36.3624H48.425C46.3941 36.3378 44.4097 36.9735 42.7671 38.175C41.8427 38.8604 40.7246 39.2302 39.5762 39.2302C38.4277 39.2302 37.3096 38.8604 36.3853 38.175C34.701 36.9959 32.6981 36.3639 30.6461 36.3639C28.594 36.3639 26.5911 36.9959 24.9069 38.175C23.9825 38.8604 22.8644 39.2302 21.7159 39.2302C20.5675 39.2302 19.4494 38.8604 18.525 38.175C16.8622 36.9582 14.8493 36.3216 12.7932 36.3624H10.3409V41.1316H12.7194C13.8724 41.1008 15.0003 41.4737 15.9103 42.1864C17.5914 43.3664 19.5921 43.999 21.6421 43.999C23.6921 43.999 25.6928 43.3664 27.3739 42.1864C28.2851 41.476 29.4121 41.1033 30.5648 41.1316C31.7183 41.0983 32.8469 41.4715 33.7557 42.1864C35.44 43.3656 37.4428 43.9977 39.4949 43.9977C41.547 43.9977 43.5499 43.3656 45.2341 42.1864Z" fill="white"/>
</svg>
