<svg width="197" height="42" viewBox="0 0 197 42" fill="none" xmlns="http://www.w3.org/2000/svg">
<path d="M31.5467 18.7194C31.0134 19.2532 30.6051 19.8975 30.3507 20.6061C30.0963 21.315 30.0021 22.0708 30.0749 22.82L30.0495 22.7948C30.1244 23.6766 30.0048 24.5639 29.6993 25.3951C29.3938 26.2262 28.9097 26.9809 28.2809 27.6067C27.6519 28.2324 26.8933 28.7141 26.0579 29.0179C25.2226 29.3218 24.3306 29.4408 23.4444 29.3664L23.4697 29.3916C22.4096 29.2934 21.3448 29.5229 20.4205 30.0489C19.4962 30.5748 18.7575 31.3716 18.3051 32.3306C17.8527 33.2896 17.7085 34.3639 17.8922 35.4075C18.0762 36.4509 18.5789 37.4126 19.3322 38.1613C20.0854 38.91 21.0524 39.4094 22.1013 39.5913C23.1503 39.7733 24.23 39.6288 25.1935 39.1778C26.157 38.7268 26.9571 37.9912 27.4849 37.0711C28.0127 36.151 28.2425 35.0915 28.1429 34.0368L28.1696 34.062C28.0947 33.1802 28.2142 32.2928 28.5197 31.4616C28.8252 30.6306 29.3094 29.8758 29.9382 29.25C30.5672 28.6244 31.3258 28.1426 32.1611 27.8388C32.9965 27.5349 33.8884 27.4159 34.7747 27.4904L34.748 27.4652C35.6139 27.5426 36.4857 27.4013 37.2822 27.0544C38.0787 26.7075 38.7744 26.1661 39.3046 25.4805C39.8348 24.7949 40.1827 23.9871 40.3155 23.1323C40.4485 22.2773 40.3623 21.4029 40.0652 20.5898C39.768 19.7768 39.2693 19.0516 38.6154 18.4814C37.9615 17.9111 37.1735 17.5144 36.3244 17.3279C35.4753 17.1414 34.5926 17.1711 33.7582 17.4143C32.9238 17.6576 32.1646 18.1064 31.551 18.7194H31.5467Z" fill="white"/>
<path d="M21.1663 26.0903L21.1395 26.0651C21.8928 26.1406 22.6535 26.0486 23.3668 25.7957C24.0799 25.5429 24.7277 25.1356 25.2633 24.6032C25.7987 24.0708 26.2088 23.4265 26.4633 22.7171C26.718 22.0078 26.811 21.2511 26.7357 20.5015L26.7625 20.5267C26.6876 19.6448 26.8072 18.7575 27.1126 17.9263C27.4181 17.0953 27.9023 16.3406 28.5311 15.7148C29.1601 15.0891 29.9187 14.6074 30.754 14.3036C31.5894 13.9996 32.4812 13.8807 33.3676 13.9551L33.3409 13.9299C34.4011 14.029 35.4662 13.8002 36.391 13.2748C37.3159 12.7495 38.0552 11.9531 38.5083 10.9942C38.9614 10.0354 39.1062 8.96089 38.923 7.91718C38.7398 6.87346 38.2374 5.91141 37.4843 5.16221C36.7314 4.41303 35.7644 3.91318 34.7154 3.73087C33.6663 3.54855 32.5864 3.69262 31.6226 4.14345C30.6588 4.59426 29.8585 5.32989 29.3304 6.24999C28.8023 7.17007 28.5723 8.22983 28.672 9.2847L28.6466 9.2581C28.7216 10.1399 28.6023 11.0275 28.297 11.8587C27.9916 12.6899 27.5074 13.4447 26.8786 14.0706C26.2496 14.6963 25.4908 15.178 24.6554 15.4818C23.8199 15.7856 22.9279 15.9043 22.0415 15.8297L22.0668 15.8563C21.3136 15.7808 20.5527 15.8728 19.8396 16.1257C19.1265 16.3784 18.4786 16.7858 17.9431 17.3182C17.4075 17.8506 16.9976 18.4949 16.7429 19.2043C16.4884 19.9136 16.3953 20.6703 16.4706 21.4199L16.4453 21.3947C16.5199 22.2764 16.4001 23.1637 16.0946 23.9948C15.789 24.8257 15.305 25.5804 14.6761 26.2061C14.0472 26.8317 13.2887 27.3133 12.4535 27.6174C11.6182 27.9214 10.7264 28.0405 9.84017 27.9663L9.8655 27.9915C8.80525 27.8924 7.74008 28.1211 6.81529 28.6466C5.89052 29.172 5.15113 29.9683 4.69802 30.9272C4.24489 31.886 4.10007 32.9605 4.28332 34.0042C4.46657 35.0479 4.96898 36.01 5.72198 36.7591C6.475 37.5084 7.44196 38.0082 8.491 38.1905C9.54004 38.3728 10.6201 38.2287 11.5838 37.7779C12.5475 37.3271 13.348 36.5916 13.876 35.6715C14.4041 34.7513 14.634 33.6916 14.5344 32.6367L14.5611 32.6619C14.4863 31.78 14.6059 30.8927 14.9114 30.0615C15.2167 29.2305 15.7009 28.4758 16.3298 27.85C16.9588 27.2243 17.7174 26.7426 18.5526 26.4388C19.3881 26.1348 20.2799 26.0158 21.1663 26.0903Z" fill="white"/>
<path d="M11.7355 23.2806C12.2689 22.7469 12.6772 22.1026 12.9314 21.3938C13.1856 20.685 13.2794 19.929 13.206 19.18L13.2327 19.2052C13.1579 18.3232 13.2774 17.4354 13.5831 16.6041C13.8887 15.7728 14.3731 15.0179 15.0024 14.3921C15.6316 13.7663 16.3905 13.2847 17.2262 12.981C18.0619 12.6773 18.9542 12.5587 19.8407 12.6336L19.814 12.6084C20.8738 12.7072 21.9386 12.4783 22.863 11.9529C23.7873 11.4276 24.5262 10.6314 24.9792 9.67289C25.432 8.71436 25.5766 7.64021 25.3934 6.59689C25.2102 5.55357 24.7079 4.59188 23.9552 3.84296C23.2025 3.09405 22.2358 2.59436 21.1872 2.41205C20.1386 2.22973 19.0589 2.37368 18.0956 2.82423C17.1321 3.27477 16.3318 4.01001 15.8039 4.92967C15.2758 5.84933 15.0457 6.90866 15.1451 7.96316L15.1197 7.93796C15.1946 8.81975 15.075 9.70717 14.7695 10.5383C14.464 11.3694 13.98 12.1241 13.351 12.7499C12.7221 13.3756 11.9635 13.8572 11.1282 14.1611C10.2928 14.465 9.40089 14.584 8.5146 14.5096L8.53992 14.5348C7.67393 14.4575 6.80233 14.599 6.00591 14.9461C5.2095 15.2931 4.51402 15.8347 3.98393 16.5204C3.45385 17.206 3.10631 18.0138 2.97351 18.8686C2.84071 19.7236 2.92696 20.598 3.22425 21.4109C3.52153 22.2238 4.02027 22.9489 4.67421 23.519C5.32815 24.0892 6.11615 24.4858 6.96519 24.6723C7.81422 24.8586 8.69682 24.8288 9.53121 24.5856C10.3656 24.3423 11.1247 23.8935 11.7383 23.2806H11.7355Z" fill="white"/>
<path d="M55.3246 9.31689H59.5039V29.5511H55.3246V9.31689Z" fill="white"/>
<path d="M61.8707 22.6225C61.8649 21.1685 62.293 19.7452 63.1007 18.5334C63.9084 17.3215 65.0594 16.3754 66.408 15.815C67.7566 15.2544 69.242 15.1048 70.6762 15.3849C72.1103 15.6651 73.4287 16.3623 74.4642 17.3885C75.4997 18.4145 76.2058 19.7234 76.4931 21.1491C76.7805 22.5749 76.636 24.0534 76.078 25.3974C75.5201 26.7413 74.5738 27.8904 73.359 28.6988C72.1441 29.5073 70.7156 29.9389 69.254 29.9389C68.2839 29.95 67.3212 29.7684 66.4224 29.4049C65.5235 29.0415 64.7065 28.5035 64.0191 27.8224C63.3316 27.1411 62.7876 26.3304 62.4188 25.4376C62.0498 24.5448 61.8635 23.5878 61.8707 22.6225ZM72.458 22.6225C72.4406 21.9957 72.2378 21.388 71.8752 20.8752C71.5124 20.3625 71.0059 19.9674 70.4188 19.7396C69.8316 19.5117 69.1901 19.461 68.5742 19.594C67.9583 19.727 67.3954 20.0375 66.956 20.4871C66.5166 20.9365 66.22 21.5049 66.1036 22.1212C65.9871 22.7373 66.0557 23.374 66.3009 23.9517C66.5462 24.5293 66.9571 25.0221 67.4822 25.3686C68.0075 25.7151 68.6238 25.8999 69.254 25.8999C69.6855 25.9114 70.1148 25.8337 70.5149 25.6718C70.9148 25.51 71.2767 25.2675 71.5777 24.9597C71.8787 24.6517 72.1124 24.285 72.2638 23.8828C72.4154 23.4806 72.4815 23.0515 72.458 22.6225Z" fill="white"/>
<path d="M93.2936 15.6926V28.8526C93.2936 33.509 89.6435 35.4774 85.9385 35.4774C84.634 35.5746 83.3278 35.3124 82.1631 34.7197C80.9985 34.127 80.0204 33.2266 79.3361 32.1174L82.9018 30.0664C83.1895 30.6446 83.6478 31.1216 84.2153 31.4337C84.7829 31.7456 85.4327 31.8777 86.0778 31.8122C86.4901 31.8691 86.91 31.8329 87.3063 31.7065C87.7026 31.5801 88.0654 31.3666 88.3676 31.082C88.6699 30.7972 88.9039 30.4486 89.0525 30.0617C89.2009 29.6748 89.26 29.2597 89.2255 28.847V27.58C88.7361 28.1757 88.1133 28.6491 87.4068 28.962C86.7003 29.2749 85.93 29.4186 85.1575 29.3818C83.3195 29.3241 81.5762 28.5572 80.2965 27.2432C79.0169 25.9293 78.3013 24.1714 78.3013 22.3419C78.3013 20.5124 79.0169 18.7546 80.2965 17.4407C81.5762 16.1266 83.3195 15.3597 85.1575 15.302C85.93 15.2652 86.7003 15.409 87.4068 15.7219C88.1133 16.0348 88.7361 16.5081 89.2255 17.1038V15.6898L93.2936 15.6926ZM89.227 22.344C89.2551 21.674 89.0809 21.0108 88.727 20.44C88.3731 19.8691 87.8555 19.4168 87.241 19.1411C86.6266 18.8653 85.9432 18.7789 85.2789 18.8929C84.6146 19.0068 83.9998 19.316 83.5135 19.7806C83.0274 20.2451 82.692 20.8438 82.5506 21.4995C82.4093 22.1553 82.4684 22.8382 82.7206 23.4602C82.9726 24.0823 83.406 24.6151 83.9649 24.99C84.5239 25.3649 85.1828 25.5649 85.8568 25.564C86.296 25.5945 86.7366 25.5332 87.1504 25.384C87.5643 25.2347 87.9421 25.0008 88.2595 24.6976C88.577 24.3942 88.8272 24.0281 88.9938 23.6226C89.1604 23.2173 89.2399 22.7818 89.227 22.344Z" fill="white"/>
<path d="M95.6604 22.6225C95.6546 21.1685 96.0825 19.7452 96.8903 18.5334C97.698 17.3215 98.8491 16.3754 100.198 15.815C101.546 15.2544 103.032 15.1048 104.466 15.3849C105.9 15.6651 107.218 16.3623 108.254 17.3885C109.289 18.4145 109.995 19.7234 110.283 21.1491C110.57 22.5749 110.426 24.0534 109.868 25.3974C109.31 26.7413 108.363 27.8904 107.149 28.6988C105.934 29.5073 104.505 29.9389 103.044 29.9389C102.074 29.95 101.111 29.7684 100.212 29.4049C99.3132 29.0415 98.4962 28.5035 97.8088 27.8224C97.1212 27.1411 96.5772 26.3304 96.2084 25.4376C95.8395 24.5448 95.6532 23.5878 95.6604 22.6225ZM106.248 22.6225C106.23 21.9957 106.027 21.388 105.665 20.8752C105.302 20.3625 104.796 19.9674 104.208 19.7396C103.621 19.5117 102.98 19.461 102.364 19.594C101.748 19.727 101.185 20.0375 100.746 20.4871C100.306 20.9365 100.01 21.5049 99.8932 22.1212C99.7767 22.7373 99.8453 23.374 100.091 23.9517C100.336 24.5293 100.747 25.0221 101.272 25.3686C101.797 25.7151 102.413 25.8999 103.044 25.8999C103.475 25.9114 103.905 25.8337 104.304 25.6718C104.704 25.51 105.066 25.2675 105.367 24.9597C105.668 24.6517 105.902 24.285 106.054 23.8828C106.205 23.4806 106.271 23.0515 106.248 22.6225Z" fill="white"/>
<path d="M112.376 11.9784C112.376 11.485 112.523 11.0027 112.798 10.5924C113.074 10.1821 113.466 9.86237 113.924 9.67356C114.382 9.48472 114.886 9.43532 115.373 9.53158C115.859 9.62785 116.306 9.86545 116.657 10.2144C117.007 10.5633 117.246 11.0078 117.343 11.4917C117.439 11.9757 117.39 12.4773 117.2 12.9332C117.01 13.389 116.689 13.7787 116.276 14.0528C115.864 14.3269 115.379 14.4732 114.883 14.4732C114.22 14.4667 113.586 14.2018 113.118 13.7353C112.649 13.2688 112.382 12.6381 112.376 11.9784ZM112.798 15.6926H116.979V29.5526H112.792L112.798 15.6926Z" fill="white"/>
<path d="M135.024 22.6226C135.072 23.5387 134.938 24.4551 134.629 25.3193C134.32 26.1835 133.842 26.9785 133.224 27.6584C132.605 28.3383 131.857 28.8899 131.023 29.2813C130.189 29.6726 129.286 29.8962 128.365 29.939C127.591 29.981 126.817 29.8511 126.099 29.5587C125.381 29.2661 124.738 28.8183 124.216 28.2478V35.0952H120.036V15.6926H124.216V16.9946C124.738 16.4246 125.381 15.9771 126.099 15.6849C126.817 15.3926 127.591 15.2628 128.365 15.3048C129.286 15.3475 130.19 15.571 131.024 15.9624C131.858 16.3539 132.606 16.9055 133.225 17.5856C133.843 18.2657 134.321 19.0609 134.63 19.9254C134.939 20.7898 135.072 21.7065 135.024 22.6226ZM130.845 22.6226C130.828 21.974 130.62 21.3446 130.246 20.813C129.872 20.2816 129.348 19.8716 128.741 19.6348C128.134 19.3977 127.47 19.3441 126.833 19.4808C126.195 19.6173 125.612 19.9379 125.157 20.4024C124.702 20.867 124.394 21.4548 124.273 22.0925C124.152 22.73 124.222 23.3889 124.476 23.9868C124.729 24.5847 125.154 25.0949 125.698 25.4537C126.241 25.8124 126.879 26.0038 127.531 26.0036C127.979 26.0235 128.425 25.9489 128.842 25.7848C129.259 25.6209 129.636 25.371 129.949 25.0518C130.262 24.7324 130.503 24.3511 130.658 23.9325C130.812 23.5139 130.876 23.0674 130.845 22.6226Z" fill="white"/>
<path d="M147.92 25.3932C147.92 28.581 145.136 29.939 142.127 29.939C140.911 30.0485 139.691 29.7928 138.623 29.2047C137.555 28.6167 136.689 27.7235 136.137 26.6406L139.757 24.5896C139.904 25.0901 140.219 25.5256 140.649 25.8231C141.079 26.1208 141.599 26.2626 142.121 26.2248C143.123 26.2248 143.626 25.9196 143.626 25.3666C143.626 23.8406 136.771 24.6456 136.771 19.8506C136.771 16.828 139.335 15.3048 142.233 15.3048C143.322 15.2705 144.4 15.5275 145.355 16.049C146.31 16.5707 147.108 17.3376 147.664 18.27L144.098 20.1824C143.942 19.8194 143.682 19.5101 143.35 19.2933C143.018 19.0764 142.629 18.9616 142.233 18.963C141.508 18.963 141.062 19.243 141.062 19.7386C141.067 21.3192 147.92 20.265 147.92 25.3932Z" fill="white"/>
<path d="M163.186 15.6926V29.5526H159.007V28.2492C158.524 28.8243 157.912 29.2775 157.22 29.5715C156.528 29.8655 155.776 29.9919 155.025 29.9404C152.211 29.9404 149.818 27.9454 149.818 24.2004V15.6926H153.998V23.5914C153.963 23.9215 154.001 24.2553 154.109 24.5693C154.216 24.8835 154.392 25.1705 154.622 25.4103C154.853 25.6501 155.133 25.837 155.444 25.9581C155.754 26.0792 156.087 26.1316 156.421 26.1114C157.953 26.1114 159.011 25.2252 159.011 23.2568V15.6968L163.186 15.6926Z" fill="white"/>
<path d="M187.15 21.0419V29.5511H182.971V21.4017C182.971 20.0157 182.302 19.1295 180.966 19.1295C179.573 19.1295 178.792 20.0997 178.792 21.7349V29.5511H174.614V21.4017C174.614 20.0157 173.945 19.1295 172.607 19.1295C171.214 19.1295 170.435 20.0997 170.435 21.7349V29.5511H166.255V15.6911H170.435V16.9651C170.868 16.3999 171.436 15.9517 172.088 15.6614C172.741 15.3711 173.456 15.248 174.168 15.3033C174.883 15.2685 175.595 15.4187 176.235 15.7391C176.874 16.0595 177.418 16.5394 177.816 17.1317C178.279 16.5119 178.893 16.0191 179.599 15.6994C180.306 15.3796 181.082 15.2434 181.856 15.3033C185.055 15.3047 187.15 17.5769 187.15 21.0419Z" fill="white"/>
<path d="M190.685 15.6072C192.397 15.6072 193.786 14.2257 193.786 12.5216C193.786 10.8175 192.397 9.43604 190.685 9.43604C188.972 9.43604 187.583 10.8175 187.583 12.5216C187.583 14.2257 188.972 15.6072 190.685 15.6072Z" fill="white"/>
</svg>
