<svg width="195" height="49" viewBox="0 0 195 49" fill="none" xmlns="http://www.w3.org/2000/svg">
<path d="M22.4832 9.58374V3.45874H2.98315V45.5411H22.4832V39.4161C18.4886 39.4161 14.6575 37.8445 11.833 35.0472C9.00842 32.2499 7.42159 28.456 7.42159 24.4999C7.42159 20.5439 9.00842 16.7499 11.833 13.9526C14.6575 11.1553 18.4886 9.58374 22.4832 9.58374Z" fill="white"/>
<path d="M22.4832 9.58374V39.4161C26.4777 39.4161 30.3088 37.8445 33.1334 35.0472C35.9579 32.2499 37.5447 28.456 37.5447 24.4999C37.5447 20.5439 35.9579 16.7499 33.1334 13.9526C30.3088 11.1553 26.4777 9.58374 22.4832 9.58374Z" fill="white"/>
<path d="M48.488 13.3308H52.8537V34.1558H48.488V13.3308Z" fill="white"/>
<path d="M55.2985 27.0221C55.2985 25.5238 55.7478 24.0593 56.5892 22.8141C57.4306 21.5689 58.6263 20.5992 60.025 20.0278C61.4236 19.4565 62.9619 19.3092 64.4451 19.6046C65.9282 19.9001 67.2894 20.625 68.3561 21.6874C69.4228 22.75 70.1471 24.1021 70.4369 25.5727C70.7267 27.0433 70.5692 28.5659 69.9842 29.9477C69.3992 31.3293 68.4133 32.5081 67.1512 33.3341C65.8891 34.1604 64.4077 34.5968 62.8948 34.5882C61.8914 34.596 60.8965 34.4054 59.9685 34.0272C59.0405 33.6492 58.1979 33.0914 57.4904 32.3869C56.7829 31.6821 56.2246 30.8445 55.8482 29.9233C55.4719 29.0021 55.285 28.0158 55.2985 27.0221ZM66.2418 27.0221C66.2247 26.3761 66.0155 25.7495 65.6407 25.2207C65.2658 24.6918 64.7419 24.2841 64.1342 24.0486C63.5267 23.8131 62.8625 23.7603 62.2248 23.8967C61.587 24.0331 61.004 24.3526 60.5487 24.8155C60.0934 25.2782 59.7859 25.8637 59.6648 26.4986C59.5437 27.1336 59.6143 27.7898 59.8678 28.3851C60.1213 28.9805 60.5464 29.4888 61.09 29.8461C61.6336 30.2035 62.2714 30.3941 62.9239 30.3944C63.3682 30.4031 63.8094 30.3208 64.2201 30.1527C64.6307 29.9848 65.002 29.7348 65.3106 29.4183C65.6193 29.1018 65.8587 28.7255 66.0139 28.3134C66.1692 27.901 66.2369 27.4615 66.2127 27.0221H66.2418Z" fill="white"/>
<path d="M87.7646 19.8882V33.4496C87.7646 38.2343 83.981 40.2664 80.1538 40.2664C78.8038 40.3761 77.4497 40.1105 76.244 39.4994C75.0382 38.8883 74.0286 37.956 73.3288 36.8076L77.0105 34.7035C77.3088 35.2992 77.7834 35.7907 78.371 36.1125C78.9586 36.4343 79.6312 36.5712 80.2993 36.5049C80.7249 36.5568 81.1568 36.515 81.5642 36.3824C81.9716 36.2497 82.3443 36.0296 82.6557 35.7376C82.9673 35.4457 83.2097 35.0893 83.3659 34.6937C83.522 34.2982 83.5879 33.8733 83.559 33.4496V32.1382C83.051 32.7482 82.4063 33.2324 81.6764 33.5527C80.9463 33.8729 80.151 34.0202 79.3534 33.9829C77.4236 33.9829 75.573 33.2237 74.2084 31.8723C72.8439 30.521 72.0773 28.6881 72.0773 26.777C72.0773 24.8658 72.8439 23.0331 74.2084 21.6817C75.573 20.3303 77.4236 19.5711 79.3534 19.5711C80.151 19.5338 80.9463 19.6811 81.6764 20.0013C82.4063 20.3215 83.051 20.8058 83.559 21.4158V19.9746L87.7646 19.8882ZM83.559 26.7337C83.5879 26.0443 83.4081 25.3619 83.0424 24.7745C82.6767 24.187 82.142 23.7214 81.5068 23.4373C80.8718 23.1533 80.1656 23.0639 79.4787 23.1807C78.792 23.2974 78.156 23.6149 77.653 24.0924C77.1499 24.5698 76.8025 25.1855 76.6556 25.8601C76.5086 26.5347 76.5687 27.2373 76.8281 27.8778C77.0878 28.5182 77.5348 29.0672 78.1118 29.454C78.6889 29.8408 79.3697 30.0479 80.0665 30.0485C80.5212 30.0809 80.9777 30.0185 81.4064 29.8654C81.8353 29.7122 82.227 29.4717 82.556 29.1592C82.8852 28.8469 83.1445 28.4696 83.3173 28.0518C83.49 27.6341 83.5724 27.185 83.559 26.7337Z" fill="white"/>
<path d="M90.2239 27.022C90.2239 25.5249 90.6724 24.0616 91.5125 22.817C92.3526 21.5724 93.5466 20.6026 94.9435 20.0304C96.3403 19.4581 97.8772 19.3091 99.3596 19.6023C100.842 19.8954 102.203 20.6174 103.271 21.677C104.339 22.7367 105.066 24.0862 105.359 25.5548C105.652 27.0235 105.499 28.5452 104.918 29.9274C104.338 31.3098 103.356 32.4904 102.098 33.3201C100.839 34.1498 99.361 34.5911 97.8493 34.5882C96.844 34.5978 95.8467 34.4086 94.9163 34.0316C93.9858 33.6546 93.1406 33.0974 92.4305 32.3927C91.7202 31.688 91.1592 30.8499 90.7802 29.9277C90.4014 29.0055 90.2123 28.0176 90.2239 27.022ZM101.167 27.022C101.15 26.3755 100.94 25.7483 100.565 25.2191C100.19 24.69 99.6647 24.2823 99.0562 24.0473C98.4478 23.8122 97.7829 23.7602 97.1448 23.8978C96.5067 24.0353 95.9237 24.3564 95.469 24.8206C95.0142 25.2848 94.7079 25.8717 94.5885 26.5075C94.4691 27.1434 94.5417 27.8 94.7974 28.395C95.0531 28.9902 95.4805 29.4974 96.026 29.8531C96.5714 30.2086 97.2107 30.397 97.8638 30.3944C98.3081 30.403 98.7493 30.3207 99.16 30.1527C99.5707 29.9848 99.9419 29.7347 100.251 29.4183C100.559 29.1018 100.799 28.7255 100.954 28.3133C101.109 27.901 101.177 27.4614 101.153 27.022H101.167Z" fill="white"/>
<path d="M107.497 16.0692C107.497 15.5619 107.649 15.0659 107.934 14.644C108.219 14.2221 108.623 13.8933 109.096 13.6992C109.57 13.505 110.091 13.4542 110.593 13.5532C111.095 13.6522 111.557 13.8965 111.919 14.2553C112.282 14.614 112.528 15.0712 112.628 15.5687C112.728 16.0663 112.677 16.5821 112.481 17.0509C112.285 17.5196 111.953 17.9203 111.527 18.2021C111.101 18.484 110.6 18.6345 110.088 18.6345C109.403 18.627 108.749 18.3543 108.264 17.8749C107.78 17.3954 107.505 16.7473 107.497 16.0692ZM107.919 19.8883H112.285V34.156H107.919V19.8883Z" fill="white"/>
<path d="M130.97 27.0222C131.019 27.971 130.878 28.9202 130.555 29.8149C130.232 30.7096 129.734 31.5322 129.089 32.2353C128.444 32.9386 127.664 33.5085 126.796 33.9123C125.928 34.3161 124.987 34.5458 124.029 34.5883C123.215 34.6419 122.4 34.513 121.644 34.211C120.888 33.909 120.211 33.4419 119.663 32.8445V39.8919H115.297V19.8883H119.663V21.2286C120.212 20.633 120.89 20.1681 121.646 19.8686C122.402 19.569 123.216 19.4427 124.029 19.4992C124.983 19.5417 125.92 19.7702 126.785 20.1712C127.651 20.5723 128.428 21.1384 129.073 21.8369C129.717 22.5355 130.217 23.3529 130.542 24.2427C130.868 25.1323 131.013 26.0767 130.97 27.0222ZM126.604 27.0222C126.587 26.3527 126.371 25.7033 125.983 25.1553C125.594 24.6072 125.051 24.1846 124.422 23.9409C123.792 23.6971 123.104 23.6429 122.443 23.7848C121.782 23.9268 121.179 24.2588 120.707 24.7392C120.236 25.2195 119.919 25.8268 119.795 26.4852C119.671 27.1434 119.746 27.8232 120.011 28.4394C120.275 29.0555 120.717 29.5807 121.282 29.949C121.847 30.3174 122.509 30.5124 123.185 30.5098C123.648 30.5293 124.11 30.4516 124.54 30.2818C124.971 30.112 125.361 29.8541 125.684 29.5248C126.007 29.1955 126.255 28.8022 126.414 28.371C126.573 27.9396 126.638 27.48 126.604 27.0222Z" fill="white"/>
<path d="M144.256 29.8757C144.256 33.1615 141.346 34.5595 138.261 34.5595C137.002 34.6716 135.739 34.4074 134.634 33.8011C133.529 33.1948 132.633 32.2742 132.062 31.1583L135.816 29.0542C135.965 29.5684 136.287 30.0165 136.73 30.3234C137.172 30.6304 137.707 30.7776 138.246 30.7404C139.279 30.7404 139.803 30.4233 139.803 29.8468C139.803 28.276 132.716 29.1118 132.716 24.1686C132.716 21.0557 135.365 19.4992 138.363 19.4992C139.502 19.4486 140.634 19.7047 141.638 20.2401C142.643 20.7755 143.482 21.5703 144.067 22.5401L140.313 24.5001C140.147 24.1283 139.876 23.8121 139.532 23.5895C139.189 23.367 138.788 23.2478 138.377 23.2463C137.62 23.2463 137.169 23.5345 137.169 24.0389C137.169 25.6818 144.256 24.601 144.256 29.8757Z" fill="white"/>
<path d="M160.075 19.8882V34.1558H155.709V32.8155C155.213 33.4089 154.583 33.8783 153.871 34.1862C153.158 34.4942 152.382 34.6319 151.605 34.5882C148.695 34.5882 146.206 32.5273 146.206 28.6794V19.8882H150.572V28.0308C150.537 28.3712 150.578 28.715 150.691 29.0384C150.805 29.3616 150.987 29.6568 151.225 29.9035C151.465 30.1501 151.757 30.3423 152.078 30.467C152.4 30.5915 152.745 30.6454 153.09 30.6249C154.661 30.6249 155.767 29.7026 155.767 27.7426V19.8882H160.075Z" fill="white"/>
<path d="M184.813 25.3935V34.1558H180.448V25.7682C180.448 24.327 179.764 23.4335 178.381 23.4335C176.999 23.4335 176.126 24.4279 176.126 26.114V34.1558H171.76V25.7682C171.76 24.327 171.076 23.4335 169.694 23.4335C168.311 23.4335 167.438 24.4279 167.438 26.114V34.1558H163.072V19.8882H167.438V21.1996C167.891 20.6203 168.48 20.1614 169.157 19.8645C169.832 19.5676 170.573 19.442 171.309 19.499C172.047 19.4609 172.783 19.6136 173.444 19.9421C174.104 20.2705 174.668 20.7635 175.078 21.3726C175.558 20.7361 176.193 20.2306 176.923 19.903C177.652 19.5753 178.456 19.4364 179.254 19.499C182.66 19.499 184.813 21.8338 184.813 25.3935Z" fill="white"/>
<path d="M188.481 19.8019C190.249 19.8019 191.682 18.3823 191.682 16.6313C191.682 14.8803 190.249 13.4607 188.481 13.4607C186.712 13.4607 185.279 14.8803 185.279 16.6313C185.279 18.3823 186.712 19.8019 188.481 19.8019Z" fill="white"/>
</svg>
