<svg width="195" height="50" viewBox="0 0 195 50" fill="none" xmlns="http://www.w3.org/2000/svg">
<path d="M57.9811 15.7344H62.6988V34.6875H57.9811V15.7344ZM64.5702 27.5313C64.5702 22.8438 67.4637 20.0469 71.9299 20.0469C76.396 20.0469 79.2895 22.8438 79.2895 27.5313C79.2895 32.2188 76.4589 35.0313 71.9299 35.0313C67.4008 35.0313 64.5702 32.2969 64.5702 27.5313ZM74.5561 27.5313C74.5561 24.9531 73.5339 23.4375 71.9299 23.4375C70.3258 23.4375 69.3194 25 69.3194 27.5313C69.3194 30.0625 70.3101 31.5938 71.9299 31.5938C73.5496 31.5938 74.5561 30.1563 74.5561 27.5469V27.5313ZM81.0666 35.6094H85.5956C85.8112 36.0852 86.1756 36.4791 86.6346 36.7325C87.0936 36.9858 87.6228 37.0852 88.1432 37.0156C89.9359 37.0156 90.8795 36.0469 90.8795 34.6406V32.0156H90.7851C90.4093 32.8202 89.7993 33.4942 89.034 33.9511C88.2688 34.4078 87.3833 34.6263 86.492 34.5781C83.048 34.5781 80.7678 31.9688 80.7678 27.4844C80.7678 23 82.9379 20.1719 86.5549 20.1719C87.4742 20.1361 88.3825 20.3803 89.1583 20.8717C89.934 21.3633 90.5401 22.0786 90.8952 22.9219V20.3125H95.6129V34.5313C95.6129 37.9531 92.5779 40.0781 88.096 40.0781C83.9287 40.0781 81.3339 38.2188 81.0666 35.625V35.6094ZM90.8952 27.5156C90.8952 25.2344 89.8416 23.7969 88.1746 23.7969C86.5077 23.7969 85.4855 25.2188 85.4855 27.5156C85.4855 29.8125 86.492 31.1094 88.1746 31.1094C89.8573 31.1094 90.8952 29.8438 90.8952 27.5313V27.5156ZM97.39 27.5156C97.39 22.8281 100.284 20.0313 104.75 20.0313C109.216 20.0313 112.125 22.8281 112.125 27.5156C112.125 32.2031 109.294 35.0156 104.75 35.0156C100.205 35.0156 97.39 32.2969 97.39 27.5313V27.5156ZM107.376 27.5156C107.376 24.9375 106.354 23.4219 104.75 23.4219C103.146 23.4219 102.218 25 102.218 27.5469C102.218 30.0938 103.209 31.6094 104.813 31.6094C106.417 31.6094 107.376 30.1563 107.376 27.5469V27.5156ZM113.918 16.9063C113.905 16.433 114.035 15.9667 114.289 15.5666C114.544 15.1664 114.913 14.8504 115.348 14.6586C115.784 14.4668 116.267 14.4078 116.736 14.4892C117.206 14.5705 117.64 14.7885 117.985 15.1155C118.329 15.4425 118.569 15.8638 118.672 16.3259C118.775 16.7881 118.738 17.2703 118.565 17.7116C118.392 18.1527 118.091 18.533 117.701 18.8041C117.31 19.0752 116.847 19.225 116.371 19.2344C116.055 19.2559 115.738 19.2124 115.44 19.1064C115.142 19.0005 114.869 18.8345 114.639 18.6188C114.409 18.4031 114.226 18.1424 114.102 17.853C113.977 17.5638 113.915 17.252 113.918 16.9375V16.9063ZM113.918 20.3438H118.636V34.6875H113.918V20.3438ZM135.761 27.5156C135.761 32.2031 133.669 34.875 130.084 34.875C129.165 34.9336 128.249 34.7103 127.462 34.2353C126.674 33.7602 126.052 33.0563 125.681 32.2188H125.586V39.2813H120.869V20.3125H125.586V22.875H125.681C126.035 22.0236 126.645 21.3014 127.427 20.8066C128.209 20.3117 129.126 20.0683 130.052 20.1094C133.669 20.1719 135.824 22.8594 135.824 27.5469L135.761 27.5156ZM131.043 27.5156C131.043 25.2344 129.99 23.7813 128.338 23.7813C126.687 23.7813 125.633 25.25 125.618 27.5156C125.602 29.7813 126.687 31.2344 128.338 31.2344C129.99 31.2344 131.043 29.8125 131.043 27.5469V27.5156ZM143.86 20.0156C147.775 20.0156 150.15 21.8594 150.26 24.8125H145.967C145.967 23.7969 145.118 23.1563 143.813 23.1563C142.507 23.1563 141.925 23.6563 141.925 24.3906C141.925 25.125 142.444 25.3594 143.498 25.5781L146.517 26.1875C149.395 26.7969 150.622 27.9531 150.622 30.125C150.622 33.0938 147.901 35 143.891 35C139.881 35 137.255 33.0938 137.05 30.1719H141.595C141.737 31.2344 142.586 31.8594 143.97 31.8594C145.354 31.8594 145.983 31.4063 145.983 30.6563C145.983 29.9063 145.542 29.75 144.41 29.5156L141.69 28.9375C138.875 28.3594 137.396 26.875 137.396 24.6875C137.428 21.875 139.96 20.0469 143.86 20.0469V20.0156ZM166.363 34.6563H161.819V31.9844H161.724C161.474 32.8814 160.924 33.6666 160.163 34.2095C159.402 34.7524 158.477 35.0203 157.541 34.9688C156.824 35.0092 156.107 34.8964 155.438 34.6378C154.769 34.3792 154.164 33.9811 153.663 33.47C153.162 32.9591 152.777 32.347 152.535 31.6756C152.292 31.0042 152.198 30.2889 152.257 29.5781V20.3125H156.975V28.5C156.975 30.2031 157.856 31.1094 159.318 31.1094C159.661 31.11 160.001 31.038 160.314 30.8978C160.625 30.7577 160.905 30.5527 161.131 30.2967C161.356 30.0406 161.526 29.7395 161.625 29.4136C161.724 29.0875 161.754 28.7441 161.709 28.4063V20.3125H166.426L166.363 34.6563ZM168.644 20.3125H173.204V23.0781H173.298C173.548 22.193 174.088 21.4152 174.83 20.8667C175.572 20.3183 176.478 20.0299 177.403 20.0469C178.345 19.972 179.279 20.2519 180.023 20.8309C180.765 21.41 181.262 22.2456 181.413 23.1719H181.507C181.792 22.2358 182.383 21.4208 183.187 20.855C183.989 20.2892 184.959 20.0049 185.942 20.0469C186.584 20.0255 187.222 20.1384 187.816 20.3784C188.412 20.6183 188.949 20.98 189.394 21.4397C189.839 21.8995 190.182 22.4472 190.4 23.047C190.617 23.6469 190.707 24.2858 190.66 24.9219V34.6875H185.942V26.1719C185.942 24.6094 185.234 23.8906 183.913 23.8906C183.619 23.8881 183.327 23.9484 183.058 24.0675C182.789 24.1866 182.548 24.3616 182.353 24.5808C182.158 24.8 182.012 25.0581 181.926 25.338C181.839 25.618 181.816 25.913 181.853 26.2031V34.6875H177.371V26.1094C177.371 24.6719 176.664 23.8906 175.374 23.8906C175.077 23.8908 174.781 23.9536 174.511 24.075C174.239 24.1966 173.995 24.3739 173.798 24.5953C173.6 24.8167 173.453 25.0774 173.363 25.36C173.275 25.6425 173.247 25.9405 173.283 26.2344V34.6875H168.565L168.644 20.3125Z" fill="white"/>
<path d="M44.7871 16.5936C43.9868 14.7755 42.9277 13.081 41.6419 11.5624C39.7415 9.25042 37.3697 7.36456 34.6828 6.02896C31.9959 4.69336 29.0547 3.93828 26.0529 3.81342C23.0512 3.68856 20.0568 4.19675 17.2669 5.30456C14.4771 6.41236 11.955 8.09466 9.86667 10.2407C7.77832 12.3868 6.17106 14.9479 5.15069 17.7557C4.13032 20.5633 3.71996 23.554 3.94663 26.5305C4.17332 29.5072 5.03187 32.4024 6.46581 35.0255C7.89975 37.6488 9.87657 39.9405 12.2661 41.7499C13.7994 42.9341 15.4936 43.8968 17.2984 44.6093C19.8287 45.6396 22.5368 46.1702 25.2714 46.1718C30.916 46.1594 36.3253 43.9238 40.3139 39.9551C44.3023 35.9863 46.5443 30.6083 46.5484 24.9999C46.5525 22.1069 45.9528 19.2446 44.7871 16.5936ZM25.2556 8.10925C27.7114 8.109 30.1374 8.64228 32.3637 9.67175C31.8208 9.90483 31.25 10.0676 30.6653 10.1561C28.7414 10.4328 26.9592 11.3203 25.5846 12.6861C24.21 14.0519 23.3168 15.8227 23.0383 17.7343C22.9161 18.8063 22.4253 19.8036 21.6489 20.558C20.8725 21.3124 19.8581 21.7774 18.7766 21.8749C16.8527 22.1516 15.0705 23.0391 13.6959 24.4049C12.3213 25.7707 11.4281 27.5415 11.1496 29.453C11.0553 30.4724 10.6176 31.4304 9.90726 32.1718C8.68167 29.5988 8.13111 26.7594 8.3068 23.9182C8.48249 21.0769 9.37872 18.326 10.9121 15.9213C12.4455 13.5168 14.5661 11.5366 17.0768 10.1653C19.5874 8.79391 22.4064 8.07589 25.2714 8.078L25.2556 8.10925ZM12.2504 35.9374C12.4391 35.7655 12.6278 35.6093 12.8165 35.4218C14.2156 34.0741 15.1136 32.2951 15.3641 30.3749C15.4657 29.2955 15.9507 28.2874 16.7322 27.5311C17.4844 26.7533 18.4967 26.2754 19.5786 26.1874C21.5025 25.9107 23.2847 25.0232 24.6593 23.6574C26.0339 22.2916 26.9271 20.5208 27.2056 18.6093C27.2737 17.4804 27.7612 16.4168 28.5738 15.6249C29.3445 14.8622 30.3664 14.4016 31.4516 14.328C33.219 14.0864 34.8674 13.3057 36.1693 12.0936C37.6518 13.3156 38.9077 14.7857 39.8806 16.4374C39.8209 16.5175 39.7523 16.591 39.6762 16.6561C38.9256 17.4408 37.9146 17.9293 36.8298 18.0311C34.9039 18.303 33.119 19.189 31.7435 20.5555C30.3681 21.9222 29.4764 23.6957 29.2028 25.6093C29.0919 26.6849 28.6103 27.6894 27.8394 28.4525C27.0683 29.2158 26.0556 29.6907 24.9726 29.7968C23.043 30.0713 21.2542 30.9571 19.8716 32.3222C18.4891 33.6876 17.5866 35.4594 17.2984 37.3749C17.2138 38.1385 16.9497 38.8718 16.5278 39.5155C14.9143 38.5636 13.4693 37.3549 12.2504 35.9374ZM25.2556 41.9686C23.6599 41.9704 22.0718 41.7494 20.5379 41.3124C21.0627 40.3405 21.4038 39.2813 21.5443 38.1874C21.6546 37.1141 22.1341 36.1115 22.9018 35.3486C23.6695 34.5858 24.6787 34.1094 25.7589 33.9999C27.6856 33.7263 29.4714 32.8402 30.8491 31.4741C32.2267 30.1082 33.1223 28.3355 33.4016 26.4218C33.5118 25.3485 33.9913 24.3458 34.7591 23.583C35.5268 22.8202 36.5359 22.3438 37.6161 22.2343C39.066 22.0469 40.448 21.5105 41.6419 20.6718C42.3049 23.1685 42.3834 25.7829 41.8715 28.3144C41.3596 30.846 40.2708 33.2275 38.6888 35.2761C37.1068 37.3246 35.0736 38.986 32.7449 40.1325C30.4164 41.2791 27.8545 41.8805 25.2556 41.8905V41.9686Z" fill="white"/>
</svg>
