<svg width="58" height="58" viewBox="0 0 58 58" fill="none" xmlns="http://www.w3.org/2000/svg">
<path d="M54.399 31.8367L46.3125 28.4663V26.0466C47.4256 25.4078 48.3895 24.5386 49.1396 23.4973C49.8898 22.4559 50.409 21.2664 50.6625 20.0083H50.8438C51.5648 20.0181 52.2603 19.7412 52.7771 19.2383C53.2939 18.7354 53.5898 18.0478 53.5997 17.3267C53.6095 16.6056 53.3325 15.9102 52.8296 15.3934C52.3267 14.8765 51.6391 14.5806 50.9181 14.5708L51.8062 12.5118C52.5651 10.7523 52.6038 8.76551 51.9142 6.97779C51.2246 5.19006 49.8616 3.74397 48.1178 2.94994L45.5875 1.79901C44.0903 1.13428 42.444 0.877383 40.8154 1.05437C39.1869 1.23135 37.6342 1.83593 36.3148 2.80676L34.9046 3.87069C33.4648 4.24151 32.2282 5.16281 31.4609 6.43629C31.0371 7.13976 30.7727 7.92759 30.6863 8.74428C30.5998 9.56098 30.6935 10.3867 30.9606 11.1633C29.5924 10.8896 28.1805 10.924 26.8272 11.2639C27.2146 9.61961 27.0191 7.89184 26.2742 6.37567C25.5292 4.8595 24.281 3.64898 22.7428 2.95085L20.2125 1.79901C18.7153 1.13428 17.069 0.877383 15.4404 1.05437C13.8119 1.23135 12.2592 1.83593 10.9398 2.80676L9.52963 3.87069C8.7129 4.07939 7.95327 4.46832 7.30649 5.00895C6.65971 5.54957 6.1422 6.22816 5.79193 6.99492C5.44167 7.76167 5.26755 8.59713 5.28234 9.43997C5.29714 10.2828 5.50048 11.1116 5.87744 11.8656L7.23138 14.5708C6.51032 14.5857 5.82472 14.8864 5.32539 15.4068C4.82606 15.9272 4.55392 16.6247 4.56882 17.3457C4.58372 18.0668 4.88445 18.7524 5.40485 19.2517C5.92525 19.751 6.6227 20.0232 7.34376 20.0083H7.52501C7.77951 21.2658 8.29912 22.4546 9.04921 23.4955C9.7993 24.5364 10.7626 25.4055 11.875 26.0448V28.4663L3.78854 31.8367C2.96189 32.1794 2.2556 32.7598 1.75917 33.5044C1.26274 34.2489 0.998525 35.1241 1.00001 36.019V48.102C1.00001 48.3424 1.09549 48.5729 1.26544 48.7429C1.4354 48.9128 1.6659 49.0083 1.90626 49.0083H8.25001V56.2583C8.25001 56.4986 8.34549 56.7291 8.51544 56.8991C8.6854 57.0691 8.9159 57.1645 9.15626 57.1645H49.0313C49.2716 57.1645 49.5021 57.0691 49.6721 56.8991C49.842 56.7291 49.9375 56.4986 49.9375 56.2583V49.0083H56.2813C56.5216 49.0083 56.7521 48.9128 56.9221 48.7429C57.092 48.5729 57.1875 48.3424 57.1875 48.102V36.019C57.189 35.1241 56.9248 34.2489 56.4283 33.5044C55.9319 32.7598 55.2256 32.1794 54.399 31.8367ZM32.1505 13.4171L34.6799 14.5708C35.9918 15.1684 37.0172 16.2566 37.5358 17.6018C38.0545 18.9469 38.025 20.4418 37.4539 21.7655L37.182 22.3863L36.2531 20.5094C36.1939 20.3899 36.109 20.2849 36.0045 20.202C35.9001 20.1191 35.7786 20.0602 35.6487 20.0297C35.5189 19.9991 35.3839 19.9976 35.2534 20.0252C35.1229 20.0529 35.0001 20.109 34.8938 20.1895L33.4438 21.277C32.1888 22.2182 30.6624 22.727 29.0938 22.727C27.5251 22.727 25.9987 22.2182 24.7438 21.277L23.2938 20.1895C23.188 20.1094 23.0657 20.0538 22.9357 20.0267C22.8058 19.9996 22.6715 20.0016 22.5425 20.0328C22.4131 20.0631 22.2919 20.1215 22.1876 20.2039C22.0833 20.2863 21.9984 20.3906 21.9389 20.5094L20.9375 22.5195L20.1889 21.0233C19.8969 20.4392 19.759 19.7901 19.7883 19.1377C19.8176 18.4853 20.0131 17.8512 20.3563 17.2956C20.6994 16.74 21.1789 16.2813 21.7492 15.963C22.3194 15.6447 22.9615 15.4774 23.6146 15.477C24.3127 15.4764 25.0002 15.6484 25.6157 15.9777C26.2313 16.3071 26.7558 16.7836 27.1426 17.3648L27.4272 17.7925L28.9352 16.7866L28.6506 16.3597C27.8451 15.1529 26.6319 14.2765 25.2331 13.8911C26.2611 13.2567 27.4281 12.882 28.6333 12.7994C29.8384 12.7169 31.0456 12.9289 32.1505 13.4171ZM38.1563 26.352H39.0625C39.3029 26.352 39.5334 26.4475 39.7033 26.6175C39.8733 26.7874 39.9688 27.0179 39.9688 27.2583C39.9688 27.4986 39.8733 27.7291 39.7033 27.8991C39.5334 28.0691 39.3029 28.1645 39.0625 28.1645H38.1563V26.352ZM26.375 36.8093C28.1447 37.3663 30.0428 37.3663 31.8125 36.8093V38.6643L29.0938 41.3831L26.375 38.6643V36.8093ZM29.0938 35.4145C27.1716 35.4124 25.3288 34.6479 23.9696 33.2887C22.6104 31.9295 21.8459 30.0867 21.8438 28.1645V24.7534L23.0744 22.2911L23.6563 22.727C25.2249 23.9036 27.1329 24.5395 29.0938 24.5395C31.0546 24.5395 32.9626 23.9036 34.5313 22.727L35.1131 22.2911L36.3438 24.7534V28.1645C36.3416 30.0867 35.5771 31.9295 34.2179 33.2887C32.8587 34.6479 31.0159 35.4124 29.0938 35.4145ZM20.0313 28.1645H19.125C18.8847 28.1645 18.6541 28.0691 18.4842 27.8991C18.3142 27.7291 18.2188 27.4986 18.2188 27.2583C18.2188 27.0179 18.3142 26.7874 18.4842 26.6175C18.6541 26.4475 18.8847 26.352 19.125 26.352H20.0313V28.1645ZM8.25001 46.3258V47.1958H2.81251V36.019C2.81218 35.4825 2.97093 34.9579 3.26871 34.5115C3.56648 34.0652 3.9899 33.7171 4.48544 33.5114L13.1302 29.91C13.2957 29.8409 13.437 29.7243 13.5362 29.575C13.6354 29.4256 13.6881 29.2501 13.6875 29.0708V25.5038C13.6827 25.3321 13.6314 25.1649 13.5389 25.0202C13.4465 24.8754 13.3165 24.7584 13.1628 24.6818C12.0794 24.1429 11.1488 23.3404 10.4565 22.348C9.76418 21.3556 9.33235 20.2052 9.20066 19.0023C9.17612 18.7806 9.07064 18.5757 8.90443 18.4269C8.73822 18.2781 8.52295 18.1958 8.29985 18.1958H7.34376C7.1034 18.1958 6.8729 18.1003 6.70294 17.9304C6.53299 17.7604 6.43751 17.5299 6.43751 17.2895C6.43751 17.0492 6.53299 16.8187 6.70294 16.6487C6.8729 16.4788 7.1034 16.3833 7.34376 16.3833H8.25001C8.36955 16.3833 8.48792 16.3596 8.59828 16.3137C8.70865 16.2678 8.80884 16.2004 8.89307 16.1156C8.97731 16.0308 9.04393 15.9301 9.0891 15.8195C9.13427 15.7088 9.15709 15.5902 9.15626 15.4707L9.14991 14.5644C9.14907 14.426 9.11652 14.2896 9.05476 14.1657L7.49872 11.0545C7.23807 10.5322 7.10021 9.95722 7.09567 9.37348C7.09113 8.78975 7.22003 8.21269 7.47253 7.68636C7.72502 7.16004 8.09444 6.69837 8.55257 6.33659C9.01071 5.97482 9.54545 5.7225 10.116 5.59891C10.2442 5.5705 10.365 5.51521 10.4703 5.43669L12.0291 4.25857C13.0868 3.48115 14.3312 2.99711 15.6362 2.85547C16.9412 2.71383 18.2605 2.91962 19.4603 3.45201L21.9924 4.60204C23.3043 5.1997 24.3297 6.28789 24.8483 7.63304C25.367 8.97818 25.3375 10.473 24.7664 11.7968L24.6196 12.1366C24.2755 12.3271 23.9446 12.5406 23.6291 12.7755L22.1999 13.8458C21.3848 14.0552 20.627 14.4444 19.9819 14.9849C19.3369 15.5253 18.821 16.2034 18.4722 16.9692C18.1233 17.735 17.9503 18.5692 17.9659 19.4106C17.9815 20.252 18.1853 21.0793 18.5622 21.8317L19.918 24.5395H19.125C18.4039 24.5395 17.7124 24.826 17.2026 25.3358C16.6927 25.8457 16.4063 26.5372 16.4063 27.2583C16.4063 27.9793 16.6927 28.6709 17.2026 29.1807C17.7124 29.6906 18.4039 29.977 19.125 29.977H20.2125C20.4721 31.231 20.9938 32.4159 21.7435 33.454C22.4931 34.4922 23.4538 35.3601 24.5625 36.0009V38.3508L11.5687 41.9604C10.6156 42.2273 9.77563 42.7981 9.17661 43.586C8.57759 44.374 8.25223 45.336 8.25001 46.3258ZM48.125 55.352H42.6875V48.102H40.875V55.352H17.3125V48.102H15.5V55.352H10.0625V46.3258C10.0638 45.7316 10.2593 45.154 10.6193 44.6812C10.9792 44.2084 11.4838 43.8662 12.0563 43.7067L25.205 40.0545L28.4558 43.3053C28.6257 43.4752 28.8562 43.5706 29.0965 43.5706C29.3368 43.5706 29.5672 43.4752 29.7372 43.3053L32.9879 40.0545L46.1313 43.7067C46.7037 43.8662 47.2083 44.2084 47.5682 44.6812C47.9282 45.154 48.1237 45.7316 48.125 46.3258V55.352ZM55.375 47.1958H49.9375V46.3258C49.9353 45.336 49.6099 44.374 49.0109 43.586C48.4119 42.7981 47.572 42.2273 46.6188 41.9604L33.625 38.3508V36.0009C34.7337 35.3601 35.6944 34.4922 36.444 33.454C37.1937 32.4159 37.7155 31.231 37.975 29.977H39.0625C39.7836 29.977 40.4751 29.6906 40.985 29.1807C41.4948 28.6709 41.7813 27.9793 41.7813 27.2583C41.7813 26.5372 41.4948 25.8457 40.985 25.3358C40.4751 24.826 39.7836 24.5395 39.0625 24.5395H38.2306L39.1187 22.4814C39.8776 20.722 39.9163 18.7352 39.2267 16.9474C38.5371 15.1597 37.1741 13.7136 35.4303 12.9196L33.3278 11.9617L32.8746 11.0554C32.6138 10.5331 32.4758 9.95813 32.4711 9.37434C32.4664 8.79054 32.5952 8.21339 32.8476 7.68697C33.1 7.16054 33.4694 6.69875 33.9275 6.33687C34.3856 5.97499 34.9204 5.72258 35.491 5.59891C35.6192 5.5705 35.74 5.51521 35.8453 5.43669L37.4041 4.25857C38.4618 3.48115 39.7062 2.99711 41.0112 2.85547C42.3162 2.71383 43.6354 2.91962 44.8353 3.45201L47.3674 4.60204C48.6793 5.1997 49.7047 6.28789 50.2233 7.63304C50.742 8.97818 50.7125 10.473 50.1414 11.7968L49.0992 14.2083C49.0498 14.3227 49.0245 14.4461 49.0249 14.5708L49.0313 15.477C49.0313 15.7174 49.1267 15.9479 49.2967 16.1179C49.4666 16.2878 49.6972 16.3833 49.9375 16.3833H50.8438C51.0841 16.3833 51.3146 16.4788 51.4846 16.6487C51.6545 16.8187 51.75 17.0492 51.75 17.2895C51.75 17.5299 51.6545 17.7604 51.4846 17.9304C51.3146 18.1003 51.0841 18.1958 50.8438 18.1958H49.8877C49.6646 18.1958 49.4493 18.2781 49.2831 18.4269C49.1169 18.5757 49.0114 18.7806 48.9868 19.0023C48.8547 20.2097 48.42 21.3643 47.7229 22.359C47.0259 23.3537 46.0891 24.1564 44.9993 24.6927C44.8484 24.7677 44.7213 24.8834 44.6324 25.0267C44.5436 25.17 44.4965 25.3352 44.4964 25.5038V29.0708C44.4964 29.2497 44.5493 29.4245 44.6485 29.5734C44.7476 29.7222 44.8886 29.8384 45.0537 29.9073L53.7021 33.5114C54.1976 33.7171 54.621 34.0652 54.9188 34.5115C55.2166 34.9579 55.3753 35.4825 55.375 36.019V47.1958Z" fill="white"/>
</svg>
