<svg width="194" height="55" viewBox="0 0 194 55" fill="none" xmlns="http://www.w3.org/2000/svg">
<g clip-path="url(#clip0_722_195)">
<path fill-rule="evenodd" clip-rule="evenodd" d="M31.4 37.8C31.4 38.1 31.4 38.5 31.4 38.9C31.4 47.6 24.3 54.7 15.6 54.7C9.10002 54.7 3.60002 50.8 1.10002 45.2C1.10002 45.2 1.10002 45.2 1.10002 45.1C1.10002 45 1.00002 45 1.00002 44.9V44.8C1.00002 44.7 0.900015 44.6 0.900015 44.5V44.4C0.900015 44.3 0.800015 44.2 0.800015 44.1C0.800015 44 0.700015 43.9 0.700015 43.8C0.700015 43.7 0.600015 43.6 0.600015 43.5C0.600015 43.4 0.500015 43.3 0.500015 43.2V43.1C0.500015 43 0.400015 42.9 0.400015 42.8V42.7C0.400015 42.6 0.400015 42.5 0.300015 42.4C0.300015 42.3 0.300015 42.3 0.300015 42.2C0.300015 42.1 0.300015 42.1 0.300015 42C0.300015 41.9 0.300015 41.8 0.200015 41.7V41.6C0.100015 41.3 1.49626e-05 41 1.49626e-05 40.7C-0.099985 39.1 1.00001 37.7 2.60001 37.5C4.20002 37.3 5.70002 38.5 5.90001 40.1C5.90001 40.2 5.90001 40.3 5.90001 40.5C6.20002 42.2 6.90001 43.7 7.90001 45.1L8.00002 45.2L8.10002 45.3L8.20002 45.4L8.30002 45.5C8.80002 46 9.30001 46.5 9.90001 46.8L10 46.9H10.1C11.6 47.9 13.4 48.4 15.3 48.4C20.7 48.4 25.1 44 25.1 38.6C25.1 33.2 20.7 28.8 15.3 28.8C14.6 28.8 13.9 28.9 13.2 29C10 29.7 7.50002 31.9 6.30001 34.9C5.60002 36.3 3.90002 37 2.40002 36.4C0.900015 35.8 0.200015 34.1 0.800015 32.6C1.00002 32.1 1.30001 31.5 1.60002 31C2.00002 31 2.20002 30.8 2.30001 30.6C2.60001 30.2 2.90002 29.7 3.20002 29.3V29.2C3.20002 29.1 3.30001 29.1 3.30001 29C3.30001 28.9 3.40002 28.9 3.50002 28.8C4.40001 27.7 5.40001 26.7 6.60001 25.9L6.70001 25.8L6.80001 25.7C6.90001 25.7 6.90001 25.6 7.00001 25.6H7.10001C7.20001 25.5 7.30001 25.5 7.40001 25.4C7.50001 25.3 7.60001 25.3 7.70001 25.2C8.10001 25 8.40002 24.8 8.80002 24.6C9.50002 24.3 10.1 24 10.8 23.8H10.9H11H11.1C11.2 23.8 11.2 23.8 11.3 23.7C11.4 23.7 11.4 23.7 11.5 23.6C12.6 23.3 13.8 23.2 15 23.1C16.7 23.1 18.5 23.3 20.2 23.8C18.6 23 16.8 22.5 15 22.3V18.7C13.6 6.3 16.2 0.1 22.7 0C23.3 0 23.5 0.9 23.4 1.3C21 7.5 20.7 14.2 22.5 20.6C21.7 9 24.3 3 30.1 2.6C30.5 2.6 30.9 3 30.8 3.4C28.4 10.1 27.4 17.2 27.7 24.4C28.2 17.9 30.3 14.2 34 13.4C34.6 13.3 34.7 14.2 34.6 14.7C32.3 22.2 31.2 30 31.4 37.8Z" fill="#FC8E28"/>
<path fill-rule="evenodd" clip-rule="evenodd" d="M22.9 42.5C23.4 41.5 23.7 40.3 23.8 39.2C23.8 38.1 23.7 36.9 23.2 35.8C23.2 35.7 23.2 35.7 23.1 35.6V35.5C21.8 32.7 19 30.7 15.8 30.7C15.1 30.7 14.5 30.8 13.8 30.9C12.9 31.1 12 31.5 11.2 32.1L11.1 32.2C11.1 32.2 11.1 32.2 11 32.2H10.9L10.8 32.3C10 32.9 9.40001 33.6 8.90001 34.5C8.90001 34.6 8.80001 34.6 8.80001 34.7C8.60001 35 8.50001 35.3 8.40001 35.6C8.30001 35.8 8.30001 36 8.20001 36.2C8.20001 36.3 8.20001 36.3 8.10001 36.4C8.10001 36.5 8.10001 36.5 8.00001 36.6C7.90001 37 7.80001 37.5 7.70001 38C7.70001 38.3 7.70001 38.5 7.70001 38.8C7.70001 39.4 7.80001 39.9 7.90001 40.5C8.60001 43.5 11 46 14.2 46.7C14.8 46.8 15.4 46.9 16 46.9C16.5 46.9 17 46.8 17.4 46.7C19.8 46.3 21.8 44.7 22.9 42.5Z" fill="#2B3241"/>
<path fill-rule="evenodd" clip-rule="evenodd" d="M12.1 43.4C11.9 43.2 11.3 42.2 11.4 40.6H11.3C10.8 40.3 9.60001 39.1 9.40001 38.9C9.30001 38.9 8.70001 39.2 8.20001 40C8.40001 41.7 9.20001 43.2 10.3 44.3L11 44.4C11.5 44 12.1 43.5 12.1 43.4Z" fill="white"/>
<path fill-rule="evenodd" clip-rule="evenodd" d="M10.5 44.5L11.2 45.1L10.9 44.6C10.9 44.6 10.6 44.5 10.5 44.5Z" fill="white"/>
<path fill-rule="evenodd" clip-rule="evenodd" d="M21.6 38.9C21.8 38.8 22.5 38.5 22.8 37.9C22.8 37.9 22.9 37.1 22.8 36.2C22.5 35.4 22.1 34.7 21.6 34C21.1 33.6 20.5 33.4 20.3 33.3L20.2 33.4C20 33.5 18.8 34.4 18.8 34.4C19.4 36 19.6 37.2 19.6 37.2C19.6 37.2 19.9 37.3 21.6 38.9Z" fill="white"/>
<path fill-rule="evenodd" clip-rule="evenodd" d="M21 44.1C21 44.2 20.9 44.4 20.9 44.4L21 44.3C21.1 44.1 21.3 44 21.4 43.8C21.2 43.8 21 43.7 20.9 43.7C21 43.9 21 44 21 44.1Z" fill="white"/>
<path fill-rule="evenodd" clip-rule="evenodd" d="M23.2 38.5C23.2 38.5 23.2 38.3 23.2 38.2C23.2 37.8 23.1 37.5 23.1 37.2C23.1 37.1 23 36.8 23 36.8C23 36.8 23 37 23 37.2C23 37.6 23 37.9 23 38.1C23.1 38.2 23.1 38.2 23.2 38.3C23.1 38.3 23.2 38.5 23.2 38.5Z" fill="white"/>
<path fill-rule="evenodd" clip-rule="evenodd" d="M19.3 32.2C19.9 32.6 20.2 33.1 20.2 33.1L20.3 33.2C20.7 33.3 21 33.4 21.2 33.5C20.6 33 20 32.5 19.3 32.2C19.2 32.1 18.9 31.9 18.9 31.9C18.9 32 19.2 32.1 19.3 32.2Z" fill="white"/>
<path fill-rule="evenodd" clip-rule="evenodd" d="M15.5 44.4C15.5 44.4 16.5 44.1 17.6 42.6V42.5C17.6 42.3 17.1 40.5 16.8 39.4C16 39 14.2 38.5 13.8 38.4C13.2 38.7 11.6 40.3 11.5 40.5C11.5 40.7 11.4 42.1 12.2 43.3C13.6 44.4 15.4 44.4 15.5 44.4Z" fill="white"/>
<path fill-rule="evenodd" clip-rule="evenodd" d="M21.7 39C21.8 40.6 21 42 20.8 42.3L21 43.5L21.6 43.7C22.6 42.4 23.3 40.7 23.3 38.9V38.8C23.2 38.5 23 38.3 22.9 38.2C22.7 38.4 22.3 38.8 21.7 39Z" fill="white"/>
<path fill-rule="evenodd" clip-rule="evenodd" d="M16.5 46.5C16.7 46.5 17 46.4 17 46.4C17 46.4 16.7 46.4 16.5 46.3C16.2 46.2 15.9 46.2 15.9 46.2C15.7 46.3 15 46.5 15.1 46.5C15.3 46.5 15.5 46.5 15.7 46.5C16 46.6 16.3 46.5 16.5 46.5Z" fill="white"/>
<path fill-rule="evenodd" clip-rule="evenodd" d="M10.4 35.4C10.4 35.4 12.7 35.1 13 35.1C13 35.1 13.8 34.1 15.2 33.2C15.2 33.1 15.1 32.4 15 31.8C13.5 31.7 12.7 31.9 12.7 31.9C12.7 31.9 12.2 32.1 11.5 32.6C11.3 33 10.3 34.4 10.2 34.7C10.2 34.6 10.2 35 10.4 35.4Z" fill="white"/>
<path fill-rule="evenodd" clip-rule="evenodd" d="M9.3 38.7C9.4 36.7 10.2 35.6 10.2 35.5C10.1 35.4 10 35 9.9 34.6L9.3 34.5C8.5 35.7 8 37.2 8 38.8C8 39.1 8 39.4 8 39.6C8.4 39.5 8.7 39 9.3 38.7Z" fill="white"/>
<path fill-rule="evenodd" clip-rule="evenodd" d="M10.9 33.1C11 33 11.2 32.8 11.2 32.8C11.2 32.8 11 33 10.8 33.1C10.3 33.5 9.9 34 9.5 34.5L10 34.6C10.1 34.3 10.5 33.6 10.9 33.1Z" fill="white"/>
<path fill-rule="evenodd" clip-rule="evenodd" d="M20.7 44.6C21 43.5 20.7 42.6 20.6 42.5C19.9 42.9 18 42.8 17.8 42.8C17.8 42.8 16.8 44.1 15.6 44.6C15.6 44.6 15.7 45.2 15.8 45.4C15.9 45.7 16 45.9 16 46.1C16.6 46.3 17.4 46.4 17.5 46.4C18.7 46 19.8 45.4 20.7 44.6Z" fill="white"/>
<path fill-rule="evenodd" clip-rule="evenodd" d="M13.7 31.6C14.7 31.5 15 31.6 15 31.6H15.1C15.5 31.5 15.8 31.4 16.1 31.4C16.4 31.4 16.8 31.4 16.8 31.4C16.8 31.4 16.3 31.3 16 31.3C15.8 31.3 15.7 31.3 15.5 31.3C14.8 31.3 14.2 31.4 13.5 31.6C13.4 31.6 13.1 31.7 13.1 31.7C13.3 31.7 13.6 31.6 13.7 31.6Z" fill="white"/>
<path fill-rule="evenodd" clip-rule="evenodd" d="M13.2 35.2V35.3C13.3 36.2 13.9 38.3 13.9 38.3V38.4C15.2 38.6 16.6 39.3 16.8 39.4C17.1 39.2 18.4 38 19.1 37.3L19.2 37.2C19.1 35.7 18.4 34.4 18.4 34.4C16.7 33.3 15.3 33.5 15.2 33.4C15.1 33.6 14 34.3 13.2 35.2Z" fill="white"/>
<path fill-rule="evenodd" clip-rule="evenodd" d="M22.3 43.5C22.3 43.4 22.3 43.4 22.3 43.5C22.2 43.4 21.2 44.6 21 45C21.5 44.5 22 44 22.3 43.5Z" fill="#CACBCB"/>
</g>
<path d="M54.837 20.3796C54.7701 19.1533 54.4832 18.2006 53.9762 17.5216C53.4691 16.8426 52.781 16.5031 51.9118 16.5031C51.3212 16.5031 50.8225 16.6551 50.4158 16.9591C50.009 17.253 49.697 17.6635 49.4797 18.1905C49.268 18.7175 49.1621 19.3154 49.1621 19.9843C49.151 20.5417 49.2151 21.0282 49.3544 21.4437C49.4992 21.8592 49.697 22.219 49.9478 22.523C50.1985 22.8169 50.4882 23.0754 50.8169 23.2983C51.1457 23.5112 51.4967 23.6936 51.87 23.8456L53.4078 24.5145C54.1545 24.8185 54.8398 25.2239 55.4638 25.7306C56.0879 26.2374 56.6283 26.8606 57.0852 27.6005C57.5421 28.3403 57.8959 29.2119 58.1466 30.2152C58.4029 31.2185 58.5339 32.3688 58.5395 33.666C58.5339 35.5713 58.2664 37.2233 57.7371 38.6219C57.2134 40.0103 56.4556 41.0896 55.4638 41.8599C54.4776 42.62 53.288 43 51.8951 43C50.5133 43 49.3098 42.6149 48.2846 41.8447C47.2649 41.0744 46.4682 39.9343 45.8943 38.4242C45.3259 36.904 45.0279 35.0241 45 32.7843H48.5019C48.5409 33.8282 48.7052 34.6998 48.995 35.399C49.2903 36.0882 49.6831 36.6101 50.1734 36.9648C50.6693 37.3094 51.2293 37.4817 51.8533 37.4817C52.4662 37.4817 52.9983 37.3196 53.4496 36.9952C53.9065 36.6709 54.2603 36.22 54.511 35.6423C54.7618 35.0646 54.8871 34.4008 54.8871 33.6508C54.8871 32.9515 54.7729 32.3637 54.5445 31.8874C54.3216 31.4111 53.9929 31.0057 53.5583 30.6713C53.1292 30.3368 52.6027 30.0328 51.9787 29.7591L50.1149 28.9078C48.6718 28.2694 47.5324 27.2711 46.6966 25.9131C45.8608 24.555 45.4457 22.7257 45.4513 20.4252C45.4457 18.5401 45.7215 16.8933 46.2787 15.4846C46.8415 14.0759 47.6132 12.9762 48.5938 12.1857C49.5744 11.3952 50.6888 11 51.9369 11C53.2072 11 54.316 11.3952 55.2632 12.1857C56.216 12.9762 56.9571 14.0759 57.4864 15.4846C58.0157 16.8933 58.2887 18.5249 58.3054 20.3796H54.837Z" fill="white"/>
<path d="M62.1504 42.5591V11.4257H68.9034C70.2016 11.4257 71.3076 11.8766 72.2214 12.7786C73.1352 13.6705 73.8317 14.912 74.3108 16.5031C74.7956 18.0841 75.0379 19.9083 75.0379 21.9758C75.0379 24.0432 74.7928 25.8675 74.3025 27.4485C73.8122 29.0295 73.1017 30.2608 72.1713 31.1425C71.2463 32.0242 70.1264 32.4651 68.8115 32.4651H64.5073V27.19H68.2264C68.9229 27.19 69.4968 26.9721 69.9481 26.5363C70.405 26.0904 70.7449 25.4773 70.9678 24.6969C71.1962 23.9064 71.3104 22.9994 71.3104 21.9758C71.3104 20.942 71.1962 20.0401 70.9678 19.2698C70.7449 18.4895 70.405 17.8865 69.9481 17.4608C69.4912 17.025 68.9118 16.8071 68.2097 16.8071H65.7693V42.5591H62.1504Z" fill="white"/>
<path d="M94.2945 26.9924C94.2945 30.3875 93.9407 33.2759 93.233 35.6575C92.531 38.0391 91.5727 39.8583 90.358 41.115C89.1489 42.3615 87.7894 42.9848 86.2795 42.9848C84.7584 42.9848 83.3933 42.3565 82.1842 41.0998C80.9751 39.8431 80.0195 38.0239 79.3175 35.6423C78.6155 33.2607 78.2644 30.3774 78.2644 26.9924C78.2644 23.5973 78.6155 20.7089 79.3175 18.3273C80.0195 15.9457 80.9751 14.1316 82.1842 12.885C83.3933 11.6283 84.7584 11 86.2795 11C87.7894 11 89.1489 11.6283 90.358 12.885C91.5727 14.1316 92.531 15.9457 93.233 18.3273C93.9407 20.7089 94.2945 23.5973 94.2945 26.9924ZM90.6254 26.9924C90.6254 24.7932 90.4444 22.9386 90.0822 21.4285C89.7256 19.9184 89.2214 18.7732 88.5695 17.9929C87.9176 17.2125 87.1542 16.8223 86.2795 16.8223C85.4047 16.8223 84.6413 17.2125 83.9894 17.9929C83.3375 18.7732 82.8305 19.9184 82.4683 21.4285C82.1118 22.9386 81.9335 24.7932 81.9335 26.9924C81.9335 29.1916 82.1118 31.0462 82.4683 32.5563C82.8305 34.0664 83.3375 35.2116 83.9894 35.9919C84.6413 36.7723 85.4047 37.1625 86.2795 37.1625C87.1542 37.1625 87.9176 36.7723 88.5695 35.9919C89.2214 35.2116 89.7256 34.0664 90.0822 32.5563C90.4444 31.0462 90.6254 29.1916 90.6254 26.9924Z" fill="white"/>
<path d="M98.152 42.5591V11.4257H104.905C106.198 11.4257 107.301 11.8462 108.215 12.6874C109.134 13.5184 109.833 14.6991 110.312 16.2295C110.797 17.7496 111.04 19.5384 111.04 21.5957C111.04 23.6632 110.794 25.4418 110.304 26.9316C109.814 28.4112 109.103 29.5463 108.173 30.3368C107.248 31.1273 106.128 31.5226 104.813 31.5226H100.292V26.2323H104.228C104.919 26.2323 105.493 26.06 105.95 25.7154C106.407 25.3709 106.746 24.854 106.969 24.1648C107.198 23.4757 107.312 22.6193 107.312 21.5957C107.312 20.562 107.198 19.6904 106.969 18.981C106.746 18.2716 106.404 17.7344 105.941 17.3696C105.484 16.9946 104.908 16.8071 104.211 16.8071H101.771V42.5591H98.152ZM107.396 28.391L111.65 42.5591H107.655L103.493 28.391H107.396Z" fill="white"/>
<path d="M114.122 16.8527V11.4257H128.179V16.8527H122.939V42.5591H119.362V16.8527H114.122Z" fill="white"/>
<path d="M140.957 20.3796C140.89 19.1533 140.603 18.2006 140.096 17.5216C139.589 16.8426 138.901 16.5031 138.032 16.5031C137.441 16.5031 136.942 16.6551 136.535 16.9591C136.129 17.253 135.817 17.6635 135.599 18.1905C135.388 18.7175 135.282 19.3154 135.282 19.9843C135.271 20.5417 135.335 21.0282 135.474 21.4437C135.619 21.8592 135.817 22.219 136.067 22.523C136.318 22.8169 136.608 23.0754 136.937 23.2983C137.265 23.5112 137.616 23.6936 137.99 23.8456L139.528 24.5145C140.274 24.8185 140.959 25.2239 141.584 25.7306C142.208 26.2374 142.748 26.8606 143.205 27.6005C143.662 28.3403 144.016 29.2119 144.266 30.2152C144.523 31.2185 144.654 32.3688 144.659 33.666C144.654 35.5713 144.386 37.2233 143.857 38.6219C143.333 40.0103 142.575 41.0896 141.584 41.8599C140.597 42.62 139.408 43 138.015 43C136.633 43 135.429 42.6149 134.404 41.8447C133.385 41.0744 132.588 39.9343 132.014 38.4242C131.446 36.904 131.148 35.0241 131.12 32.7843H134.622C134.661 33.8282 134.825 34.6998 135.115 35.399C135.41 36.0882 135.803 36.6101 136.293 36.9648C136.789 37.3094 137.349 37.4817 137.973 37.4817C138.586 37.4817 139.118 37.3196 139.569 36.9952C140.026 36.6709 140.38 36.22 140.631 35.6423C140.881 35.0646 141.007 34.4008 141.007 33.6508C141.007 32.9515 140.893 32.3637 140.664 31.8874C140.441 31.4111 140.113 31.0057 139.678 30.6713C139.249 30.3368 138.722 30.0328 138.098 29.7591L136.235 28.9078C134.792 28.2694 133.652 27.2711 132.816 25.9131C131.981 24.555 131.565 22.7257 131.571 20.4252C131.565 18.5401 131.841 16.8933 132.398 15.4846C132.961 14.0759 133.733 12.9762 134.714 12.1857C135.694 11.3952 136.808 11 138.057 11C139.327 11 140.436 11.3952 141.383 12.1857C142.336 12.9762 143.077 14.0759 143.606 15.4846C144.135 16.8933 144.408 18.5249 144.425 20.3796H140.957Z" fill="white"/>
<path d="M148.27 42.5591V11.4257H155.123C156.383 11.4257 157.433 11.7652 158.274 12.4442C159.116 13.1232 159.748 14.0657 160.171 15.2717C160.595 16.4676 160.807 17.8459 160.807 19.4067C160.807 20.6228 160.673 21.692 160.405 22.6143C160.138 23.5264 159.77 24.2763 159.302 24.8641C158.84 25.4418 158.31 25.8523 157.714 26.0955V26.3995C158.366 26.4502 158.976 26.7846 159.545 27.4029C160.119 28.0211 160.584 28.8876 160.94 30.0024C161.297 31.107 161.475 32.4245 161.475 33.9549C161.475 35.6068 161.25 37.0814 160.798 38.3786C160.353 39.6657 159.692 40.6842 158.817 41.4342C157.943 42.1842 156.865 42.5591 155.583 42.5591H148.27ZM151.889 37.1777H154.839C155.848 37.1777 156.583 36.828 157.046 36.1287C157.508 35.4193 157.739 34.4768 157.739 33.3012C157.739 32.4397 157.625 31.6797 157.397 31.0209C157.168 30.3622 156.842 29.8453 156.419 29.4703C156.001 29.0953 155.502 28.9078 154.923 28.9078H151.889V37.1777ZM151.889 24.4537H154.572C155.068 24.4537 155.508 24.2966 155.892 23.9824C156.282 23.6581 156.589 23.2021 156.812 22.6143C157.04 22.0264 157.154 21.3221 157.154 20.5012C157.154 19.3762 156.934 18.4692 156.494 17.78C156.059 17.0909 155.441 16.7463 154.639 16.7463H151.889V24.4537Z" fill="white"/>
<path d="M165.007 42.5591V11.4257H176.54V16.8527H168.626V24.2713H175.947V29.6983H168.626V37.1321H176.574V42.5591H165.007Z" fill="white"/>
<path d="M179.942 16.8527V11.4257H194V16.8527H188.76V42.5591H185.183V16.8527H179.942Z" fill="white"/>
<defs>
<clipPath id="clip0_722_195">
<rect width="34.7" height="54.6" fill="white"/>
</clipPath>
</defs>
</svg>
