                        <svg
                          width="18"
                          height="18"
                          viewBox="0 0 18 18"
                          fill="none"
                          xmlns="http://www.w3.org/2000/svg"
                        >
                          <g clipPath="url(#clip0_745_1789)">
                            <path
                              d="M14.2243 11.1504C13.8558 10.7667 13.4113 10.5615 12.9402 10.5615C12.473 10.5615 12.0247 10.7629 11.641 11.1466L10.4405 12.3432C10.3417 12.2901 10.2429 12.2407 10.148 12.1913C10.0112 12.1229 9.88202 12.0583 9.77185 11.9899C8.64734 11.2757 7.6254 10.345 6.64525 9.14067C6.17037 8.54043 5.85125 8.03515 5.61951 7.52229C5.93103 7.23736 6.21976 6.94104 6.50089 6.65611C6.60726 6.54974 6.71363 6.43956 6.82001 6.33319C7.6178 5.5354 7.6178 4.50206 6.82001 3.70427L5.78287 2.66714C5.6651 2.54937 5.54353 2.4278 5.42956 2.30623C5.20162 2.07069 4.96228 1.82755 4.71535 1.59961C4.34684 1.2349 3.90615 1.04115 3.44267 1.04115C2.97919 1.04115 2.53091 1.2349 2.15101 1.59961L2.14341 1.60721L0.851739 2.91027C0.365464 3.39655 0.0881355 3.9892 0.0273512 4.67682C-0.0638254 5.78613 0.262891 6.81947 0.513626 7.49569C1.12907 9.15587 2.04843 10.6945 3.41988 12.3432C5.08385 14.3301 7.08594 15.8991 9.37295 17.0046C10.2467 17.4187 11.413 17.9088 12.7161 17.9924C12.7959 17.9962 12.8794 18 12.9554 18C13.833 18 14.57 17.6847 15.1475 17.0578C15.1513 17.0502 15.1589 17.0464 15.1627 17.0388C15.3602 16.7995 15.5882 16.583 15.8275 16.3512C15.9908 16.1955 16.158 16.0321 16.3214 15.8611C16.6975 15.4698 16.895 15.014 16.895 14.5467C16.895 14.0756 16.6937 13.6235 16.31 13.2436L14.2243 11.1504ZM15.5844 15.1507C15.5806 15.1507 15.5806 15.1545 15.5844 15.1507C15.4362 15.3103 15.2842 15.4546 15.1209 15.6142C14.8739 15.8497 14.6232 16.0967 14.3877 16.374C14.004 16.7843 13.5519 16.9781 12.9592 16.9781C12.9022 16.9781 12.8415 16.9781 12.7845 16.9743C11.6562 16.9021 10.6076 16.4614 9.82123 16.0853C7.67099 15.0444 5.78287 13.5665 4.21388 11.6936C2.91841 10.1322 2.05223 8.68859 1.47858 7.13859C1.12527 6.19263 0.996102 5.45562 1.05309 4.7604C1.09108 4.31591 1.26203 3.94741 1.57735 3.63209L2.87282 2.33662C3.05897 2.16186 3.25652 2.06689 3.45027 2.06689C3.68961 2.06689 3.88336 2.21125 4.00493 2.33282L4.01633 2.34422C4.24807 2.56076 4.46841 2.7849 4.70015 3.02424C4.81792 3.14581 4.93949 3.26738 5.06106 3.39275L6.09819 4.42988C6.50089 4.83258 6.50089 5.20488 6.09819 5.60758C5.98802 5.71775 5.88165 5.82792 5.77147 5.93429C5.45236 6.26101 5.14844 6.56493 4.81792 6.86126C4.81032 6.86885 4.80272 6.87265 4.79892 6.88025C4.47221 7.20697 4.53299 7.52609 4.60138 7.74263L4.61277 7.77682C4.8825 8.43025 5.26241 9.0457 5.83986 9.77891L5.84366 9.78271C6.89219 11.0744 7.9977 12.0811 9.21719 12.8523C9.37295 12.9511 9.53251 13.0309 9.68447 13.1069C9.82123 13.1752 9.9504 13.2398 10.0606 13.3082C10.0758 13.3158 10.091 13.3272 10.1062 13.3348C10.2353 13.3994 10.3569 13.4298 10.4823 13.4298C10.7976 13.4298 10.9951 13.2322 11.0597 13.1676L12.359 11.8684C12.4881 11.7392 12.6933 11.5834 12.9326 11.5834C13.1682 11.5834 13.3619 11.7316 13.4797 11.8608L13.4873 11.8684L15.5806 13.9616C15.9719 14.3491 15.9719 14.748 15.5844 15.1507ZM9.72626 4.28172C10.7216 4.44888 11.6258 4.91996 12.3476 5.64177C13.0694 6.36358 13.5367 7.26775 13.7076 8.2631C13.7494 8.51383 13.966 8.68859 14.2129 8.68859C14.2433 8.68859 14.2699 8.68479 14.3003 8.68099C14.5814 8.6354 14.7676 8.36947 14.722 8.08834C14.5168 6.88405 13.947 5.78613 13.077 4.91616C12.207 4.04618 11.1091 3.47633 9.90481 3.27118C9.62368 3.22559 9.36155 3.41174 9.31217 3.68907C9.26278 3.9664 9.44513 4.23613 9.72626 4.28172ZM17.9777 7.94018C17.6396 5.95709 16.7051 4.15255 15.269 2.71652C13.833 1.28049 12.0285 0.345932 10.0454 0.00781895C9.76805 -0.0415683 9.50591 0.148383 9.45653 0.425712C9.41094 0.706839 9.59709 0.968972 9.87822 1.01836C11.6486 1.31848 13.2631 2.15807 14.5472 3.43834C15.8313 4.72241 16.6671 6.33699 16.9672 8.10734C17.009 8.35807 17.2255 8.53283 17.4725 8.53283C17.5029 8.53283 17.5295 8.52903 17.5598 8.52523C17.8372 8.48344 18.0271 8.21751 17.9777 7.94018Z"
                              fill="#FC8E28"
                            />
                          </g>
                          <defs>
                            <clipPath id="clip0_745_1789">
                              <rect width="18" height="18" fill="white" />
                            </clipPath>
                          </defs>
                        </svg>