<svg width="58" height="58" viewBox="0 0 58 58" fill="none" xmlns="http://www.w3.org/2000/svg">
<g clip-path="url(#clip0_722_762)">
<path d="M47.0692 50.5161L44.9036 44.0183C44.5322 42.9046 43.8684 41.9113 42.9815 41.1422C42.0946 40.3732 41.0172 39.8566 39.8622 39.6467L33.6104 38.5092V38.0246C34.6984 37.3932 35.6451 36.5484 36.3991 35.5484H38.2878C39.8351 35.5484 41.0943 34.2892 41.0943 32.7419V21.5161C41.0943 14.8106 35.6385 9.35484 28.933 9.35484C22.2274 9.35484 16.7717 14.8106 16.7717 21.5161V28.0645C16.7717 29.8681 18.0542 31.3771 19.7549 31.7288C20.2798 34.4174 21.9599 36.6925 24.2556 38.0246V38.5092L18.0028 39.6467C16.8479 39.8567 15.7707 40.3732 14.884 41.1423C13.9972 41.9114 13.3335 42.9047 12.9624 44.0183L12.5882 45.1418L9.40195 41.9555C9.03711 41.5907 9.03711 40.9966 9.40195 40.6318L13.0971 36.9376L6.16143 30.0019L1.98543 34.1779C0.74872 35.4146 0.067688 37.0592 0.067688 38.8085C0.067688 40.5579 0.74872 42.2015 1.98543 43.4383L14.6285 56.0813C15.8652 57.318 17.5098 58 19.2591 58C21.0085 58 22.6521 57.318 23.8598 56.1094L28.4166 51.9343L26.9956 50.5161H47.0692ZM39.2233 32.7419C39.2233 33.2583 38.8033 33.6774 38.2878 33.6774H37.5011C37.7754 33.0523 37.9799 32.3988 38.111 31.7288C38.5114 31.6455 38.88 31.4865 39.2233 31.2863V32.7419ZM38.2878 29.6754V26.4536C38.8444 26.7782 39.2233 27.3751 39.2233 28.0645C39.2233 28.754 38.8444 29.3508 38.2878 29.6754ZM19.5781 29.6754C19.0215 29.3508 18.6427 28.754 18.6427 28.0645C18.6427 27.3751 19.0215 26.7782 19.5781 26.4536V29.6754ZM19.5781 23.3871V24.4554C19.2501 24.5412 18.9353 24.6715 18.6427 24.8427V21.5161C18.6427 15.8424 23.2593 11.2258 28.933 11.2258C34.6067 11.2258 39.2233 15.8424 39.2233 21.5161V24.8427C38.9308 24.6711 38.616 24.5408 38.2878 24.4554V23.3871H37.3523C34.5861 23.3871 31.9855 22.3094 30.0284 20.3533L28.933 19.2579L27.8375 20.3533C25.8805 22.3094 23.2798 23.3871 20.5136 23.3871H19.5781ZM21.4491 29.9355V25.2225C24.2584 25.0111 26.8777 23.852 28.933 21.8978C30.9882 23.852 33.6076 25.012 36.4169 25.2225V29.9355C36.4169 31.2994 36.0445 32.5754 35.4047 33.6774H28.933V35.5484H33.8667C32.5477 36.7093 30.8236 37.4194 28.933 37.4194C24.8066 37.4194 21.4491 34.0619 21.4491 29.9355ZM31.7394 38.8591V38.903L28.933 41.7095L26.1265 38.903V38.8591C27.0134 39.1378 27.9554 39.2903 28.933 39.2903C29.9106 39.2903 30.8526 39.1378 31.7394 38.8591ZM14.7361 44.6095C15.0013 43.814 15.4754 43.1043 16.1088 42.5548C16.7423 42.0053 17.5117 41.6361 18.3368 41.4859L24.8758 40.2978L28.933 44.355L32.9892 40.2988L39.5273 41.4868C40.3524 41.6369 41.122 42.006 41.7554 42.5555C42.3889 43.1051 42.863 43.8148 43.128 44.6104L44.4742 48.6452H25.1246L21.4809 45.0014L17.4321 48.6639C17.0795 49.0184 16.463 49.0184 16.1094 48.6639L14.0663 46.6208L14.7361 44.6095ZM6.16049 32.6474L10.4506 36.9376L9.43469 37.9535L5.14456 33.6634L6.16049 32.6474ZM22.5642 54.7604C21.6811 55.6416 20.5061 56.129 19.2573 56.129C18.0084 56.129 16.8334 55.6416 15.9494 54.7585L3.30633 42.1164C2.42324 41.2333 1.93678 40.0584 1.93678 38.8095C1.93678 37.5597 2.42324 36.3847 3.30633 35.5016L3.82085 34.9871L8.11098 39.2772L8.0773 39.3109C6.98372 40.4054 6.98372 42.1856 8.0773 43.2802L14.7857 49.9885C15.3161 50.518 16.0205 50.8108 16.7708 50.8108C17.521 50.8108 18.2254 50.5189 18.7212 50.0213L18.7914 49.9586L23.1012 54.2684L22.5642 54.7604ZM24.4819 53.0017L20.1815 48.7013L21.4173 47.5843L25.7102 51.8773L24.4819 53.0017ZM55.1265 0H42.0298C40.4825 0 39.2233 1.25916 39.2233 2.80645V10.2903C39.2233 11.8376 40.4825 13.0968 42.0298 13.0968H44.5284L43.5611 18.7387L52.5886 13.0968H55.1265C56.6738 13.0968 57.933 11.8376 57.933 10.2903V2.80645C57.933 1.25916 56.6738 0 55.1265 0ZM56.062 10.2903C56.062 10.8058 55.642 11.2258 55.1265 11.2258H52.0516L46.1103 14.9387L46.7474 11.2258H42.0298C41.5143 11.2258 41.0943 10.8058 41.0943 10.2903V2.80645C41.0943 2.291 41.5143 1.87097 42.0298 1.87097H55.1265C55.642 1.87097 56.062 2.291 56.062 2.80645V10.2903Z" fill="white"/>
<path d="M42.8985 0.935484H54.1243V2.80645H42.8985V0.935484ZM42.8985 4.67742H50.3824V6.54839H42.8985V4.67742ZM52.2533 4.67742H54.1243V6.54839H52.2533V4.67742ZM28.8662 0C16.6432 0 6.11432 8.4549 3.3771 20.2485L1.60435 17.2934L0 18.256L3.28823 23.7351L8.76735 20.4469L7.80474 18.8425L5.26958 20.3636C7.92074 9.57468 17.6226 1.87097 28.8662 1.87097C31.3237 1.87097 33.7485 2.23581 36.0732 2.95613L36.627 1.16935C34.1227 0.392903 31.5118 0 28.8662 0ZM57.4116 17.907L51.9325 14.6188L48.6452 20.0989L50.2495 21.0615L51.8866 18.3327C52.7482 20.8538 53.1888 23.4909 53.1888 26.1935C53.1888 31.7569 51.2617 37.1958 47.7639 41.5074L49.2167 42.6861C52.9849 38.0424 55.0598 32.1844 55.0598 26.1935C55.0598 23.3319 54.5986 20.5376 53.6996 17.8621L56.449 19.5114L57.4116 17.907Z" fill="white"/>
</g>
<defs>
<clipPath id="clip0_722_762">
<rect width="58" height="58" fill="white"/>
</clipPath>
</defs>
</svg>
