<svg width="58" height="58" viewBox="0 0 58 58" fill="none" xmlns="http://www.w3.org/2000/svg">
<g clip-path="url(#clip0_722_782)">
<mask id="mask0_722_782" style="mask-type:luminance" maskUnits="userSpaceOnUse" x="0" y="0" width="58" height="58">
<path d="M57.2498 57.25V0.750168H0.75V57.25H57.2498Z" fill="white" stroke="white" stroke-width="1.5"/>
</mask>
<g mask="url(#mask0_722_782)">
<path d="M8.83209 41.9804L11.2201 41.3188C11.1113 39.6491 11.8985 37.9918 13.3609 37.0425C13.5238 36.9357 13.6933 36.8396 13.8686 36.7547L22.3137 32.6302L26.6568 30.5084C26.889 30.3948 27.1313 30.3034 27.3807 30.2354C29.1955 29.7381 31.1666 30.5367 32.0953 32.2484C33.1501 34.1923 32.4851 36.6211 30.5888 37.7573L23.5688 41.9656L35.3829 44.0228C36.8045 44.2698 38.267 43.9707 39.4791 43.1846L51.2286 35.5573C52.8043 34.5333 54.9012 34.889 56.0532 36.3752C56.3429 36.7486 56.5568 37.175 56.6831 37.6304C57.0524 38.9796 56.6151 40.4783 55.4574 41.4072H55.4562L40.8441 53.1284C40.2492 53.6056 39.5647 53.9591 38.8311 54.1678C38.0974 54.3766 37.3294 54.4364 36.5723 54.3439L16.8784 51.9468L12.8638 53.4319" stroke="white" stroke-width="1.5" stroke-miterlimit="10" stroke-linecap="round" stroke-linejoin="round"/>
<path d="M25.3621 33.65C25.3621 33.65 25.5981 34.8802 26.4206 36.1082C26.7926 36.6638 27.5291 36.8423 28.1191 36.5276L29.1723 35.966" stroke="white" stroke-width="1.5" stroke-miterlimit="10" stroke-linecap="round" stroke-linejoin="round"/>
<path d="M10.7488 47.0259C11.6505 49.5464 12.4786 52.0918 13.2319 54.6645C11.0717 56.0136 8.72662 56.8417 6.19944 57.1498C4.2728 52.5187 2.60017 47.786 1.18903 42.9727C3.35031 41.6247 5.69421 40.7955 8.22264 40.4874C8.6851 41.5995 9.13298 42.7177 9.56615 43.8416" stroke="white" stroke-width="1.5" stroke-miterlimit="10" stroke-linecap="round" stroke-linejoin="round"/>
<path d="M18.3564 34.5634C18.3043 34.0332 18.2771 33.4849 18.2771 32.9185C18.2771 32.2366 18.3157 31.5478 18.3904 30.8534" stroke="white" stroke-width="1.5" stroke-miterlimit="10" stroke-linecap="round" stroke-linejoin="round"/>
<path d="M49.8281 20.8824C52.1096 24.5606 53.4667 28.8857 53.4667 32.9185C53.4667 33.6344 53.4237 34.3197 53.341 34.9779" stroke="white" stroke-width="1.5" stroke-miterlimit="10" stroke-linecap="round" stroke-linejoin="round"/>
<path d="M28.6288 13.9643C30.8378 12.5993 33.2902 11.7939 35.8719 11.7939C40.4938 11.7939 44.6999 14.3744 47.8402 18.1263" stroke="white" stroke-width="1.5" stroke-miterlimit="10" stroke-linecap="round" stroke-linejoin="round"/>
<path d="M31.2626 12.6582C27.5899 8.15076 29.6495 3.68522 32.9199 5.08537C32.9199 5.08537 32.6242 0.849801 35.8719 0.849801C39.1196 0.849801 38.8241 5.08537 38.8241 5.08537C42.0956 3.68522 44.154 8.15076 40.4814 12.6582" stroke="white" stroke-width="1.5" stroke-miterlimit="10" stroke-linecap="round" stroke-linejoin="round"/>
<path d="M44.2991 21.53C44.2991 21.53 42.656 20.0146 40.1235 20.7775C37.798 21.478 37.2206 24.6599 38.8009 25.8993C39.7082 26.611 41.0734 27.1961 42.9135 27.8466C47.0319 29.3024 45.5095 35.1102 41.3202 35.138C39.6854 35.1489 38.9212 35.0451 37.4851 34.1057" stroke="white" stroke-width="1.5" stroke-miterlimit="10" stroke-linecap="round" stroke-linejoin="round"/>
<path d="M41 20V38.6558" stroke="white" stroke-width="1.5" stroke-miterlimit="10" stroke-linecap="round" stroke-linejoin="round"/>
<path d="M25.3927 26.3927C20.0414 31.7441 11.365 31.7441 6.01363 26.3927C0.662124 21.0413 0.662124 12.365 6.01363 7.01351C11.365 1.66212 20.0414 1.66212 25.3927 7.01351C30.7441 12.365 30.7441 21.0413 25.3927 26.3927Z" stroke="white" stroke-width="1.5" stroke-miterlimit="10" stroke-linecap="round" stroke-linejoin="round"/>
<path d="M18.6019 9.89787L12.3687 24.7502" stroke="white" stroke-width="1.5" stroke-miterlimit="10" stroke-linecap="round" stroke-linejoin="round"/>
<path d="M13.9296 12.406C13.9296 14.1736 12.6964 15.6064 11.1755 15.6064C9.65438 15.6064 8.4212 14.1736 8.4212 12.406C8.4212 10.6384 9.65438 9.20562 11.1755 9.20562C12.6964 9.20562 13.9296 10.6384 13.9296 12.406Z" stroke="white" stroke-width="1.5" stroke-miterlimit="10" stroke-linecap="round" stroke-linejoin="round"/>
<path d="M22.3478 22.561C22.3478 24.3285 21.1147 25.7614 19.5937 25.7614C18.0725 25.7614 16.8395 24.3285 16.8395 22.561C16.8395 20.7934 18.0725 19.3605 19.5937 19.3605C21.1147 19.3605 22.3478 20.7934 22.3478 22.561Z" stroke="white" stroke-width="1.5" stroke-miterlimit="10" stroke-linecap="round" stroke-linejoin="round"/>
</g>
</g>
<defs>
<clipPath id="clip0_722_782">
<rect width="58" height="58" fill="white"/>
</clipPath>
</defs>
</svg>
